<svg xmlns="http://www.w3.org/2000/svg" xmlns:xlink="http://www.w3.org/1999/xlink" style="margin:auto;background:#f0ece6;display:block;z-index:1;position:relative" width="1504" height="2000" preserveAspectRatio="xMidYMid" viewBox="0 0 1504 2000">
<g transform="translate(752,1000) scale(1,1) translate(-752,-1000)"><g transform="translate(-100 410.34071547113535) rotate(0)">
  <animateTransform attributeName="transform" type="translate" keyTimes="0;1" values="-100 410.34071547113535;1604 3396.0426787710862" dur="100s" repeatCount="indefinite" begin="-67.1495290205617s"></animateTransform>
  <animateTransform attributeName="transform" type="rotate" keyTimes="0;1" begin="-67.1495290205617s" values="0 50 50;647.3026842427274 50 50" dur="100s" repeatCount="indefinite" additive="sum"></animateTransform>
  <path d="M87.422,66.495c-2.009-0.544-4.049-0.97-6.107-1.283c10.617-11.116,15.747-27.37,13.129-42.549 c-5.236,1.77-10.223,4.252-14.824,7.313c-4.13,2.747-7.948,5.961-11.374,9.55C67.425,24.863,61.344,10.451,50.991,0 c-4.015,5.451-7.281,11.444-9.753,17.744c-3.579,9.122-5.501,18.893-5.669,28.691c-4.79-7.979-11.256-14.955-18.858-20.322 c-4.514-3.187-9.431-5.806-14.616-7.72c-3.361,16.717,2.731,35.015,15.445,46.379c0.369,0.33,0.745,0.654,1.126,0.972 c-2.359,0.411-4.689,0.983-6.969,1.714C7.582,68.775,3.634,70.61,0,72.945c8.85,9.963,23.134,14.771,36.208,12.186 c3.524-0.697,7.002-1.919,9.887-4.057c0.073-0.054,0.145-0.111,0.218-0.167c-0.987,5.662-2.714,11.136-5.104,16.221l7.509,2.806 c1.698-5.797,2.631-11.748,2.814-17.669c0.107,0.076,0.215,0.152,0.324,0.225c3.142,2.114,6.863,3.232,10.607,3.796 C76.352,88.379,91.161,82.628,100,71.71C96.061,69.427,91.816,67.684,87.422,66.495z" fill="#266867" transform="scale(2.03387277820447)"></path>
</g><g transform="translate(-100 384.39180558873784) rotate(0)">
  <animateTransform attributeName="transform" type="translate" keyTimes="0;1" values="-100 384.39180558873784;1110.3996571852413 2100" dur="100s" repeatCount="indefinite" begin="-31.133634420315893s"></animateTransform>
  <animateTransform attributeName="transform" type="rotate" keyTimes="0;1" begin="-31.133634420315893s" values="0 50 50;886.8367334570801 50 50" dur="100s" repeatCount="indefinite" additive="sum"></animateTransform>
  <path d="M87.422,66.495c-2.009-0.544-4.049-0.97-6.107-1.283c10.617-11.116,15.747-27.37,13.129-42.549 c-5.236,1.77-10.223,4.252-14.824,7.313c-4.13,2.747-7.948,5.961-11.374,9.55C67.425,24.863,61.344,10.451,50.991,0 c-4.015,5.451-7.281,11.444-9.753,17.744c-3.579,9.122-5.501,18.893-5.669,28.691c-4.79-7.979-11.256-14.955-18.858-20.322 c-4.514-3.187-9.431-5.806-14.616-7.72c-3.361,16.717,2.731,35.015,15.445,46.379c0.369,0.33,0.745,0.654,1.126,0.972 c-2.359,0.411-4.689,0.983-6.969,1.714C7.582,68.775,3.634,70.61,0,72.945c8.85,9.963,23.134,14.771,36.208,12.186 c3.524-0.697,7.002-1.919,9.887-4.057c0.073-0.054,0.145-0.111,0.218-0.167c-0.987,5.662-2.714,11.136-5.104,16.221l7.509,2.806 c1.698-5.797,2.631-11.748,2.814-17.669c0.107,0.076,0.215,0.152,0.324,0.225c3.142,2.114,6.863,3.232,10.607,3.796 C76.352,88.379,91.161,82.628,100,71.71C96.061,69.427,91.816,67.684,87.422,66.495z" fill="#1a4645" transform="scale(0.9829307223200657)"></path>
</g><g transform="translate(743.8494408940642 -100) rotate(0)">
  <animateTransform attributeName="transform" type="translate" keyTimes="0;1" values="743.8494408940642 -100;1604 1659.0048948349906" dur="100s" repeatCount="indefinite" begin="-98.43707658822353s"></animateTransform>
  <animateTransform attributeName="transform" type="rotate" keyTimes="0;1" begin="-98.43707658822353s" values="0 50 50;269.9947061162687 50 50" dur="100s" repeatCount="indefinite" additive="sum"></animateTransform>
  <path d="M87.422,66.495c-2.009-0.544-4.049-0.97-6.107-1.283c10.617-11.116,15.747-27.37,13.129-42.549 c-5.236,1.77-10.223,4.252-14.824,7.313c-4.13,2.747-7.948,5.961-11.374,9.55C67.425,24.863,61.344,10.451,50.991,0 c-4.015,5.451-7.281,11.444-9.753,17.744c-3.579,9.122-5.501,18.893-5.669,28.691c-4.79-7.979-11.256-14.955-18.858-20.322 c-4.514-3.187-9.431-5.806-14.616-7.72c-3.361,16.717,2.731,35.015,15.445,46.379c0.369,0.33,0.745,0.654,1.126,0.972 c-2.359,0.411-4.689,0.983-6.969,1.714C7.582,68.775,3.634,70.61,0,72.945c8.85,9.963,23.134,14.771,36.208,12.186 c3.524-0.697,7.002-1.919,9.887-4.057c0.073-0.054,0.145-0.111,0.218-0.167c-0.987,5.662-2.714,11.136-5.104,16.221l7.509,2.806 c1.698-5.797,2.631-11.748,2.814-17.669c0.107,0.076,0.215,0.152,0.324,0.225c3.142,2.114,6.863,3.232,10.607,3.796 C76.352,88.379,91.161,82.628,100,71.71C96.061,69.427,91.816,67.684,87.422,66.495z" fill="#266867" transform="scale(1.7967304977948668)"></path>
</g><g transform="translate(-100 473.51663382770283) rotate(0)">
  <animateTransform attributeName="transform" type="translate" keyTimes="0;1" values="-100 473.51663382770283;1604 2673.8749583515655" dur="100s" repeatCount="indefinite" begin="-61.18011743851029s"></animateTransform>
  <animateTransform attributeName="transform" type="rotate" keyTimes="0;1" begin="-61.18011743851029s" values="0 50 50;632.0405694261214 50 50" dur="100s" repeatCount="indefinite" additive="sum"></animateTransform>
  <path d="M87.422,66.495c-2.009-0.544-4.049-0.97-6.107-1.283c10.617-11.116,15.747-27.37,13.129-42.549 c-5.236,1.77-10.223,4.252-14.824,7.313c-4.13,2.747-7.948,5.961-11.374,9.55C67.425,24.863,61.344,10.451,50.991,0 c-4.015,5.451-7.281,11.444-9.753,17.744c-3.579,9.122-5.501,18.893-5.669,28.691c-4.79-7.979-11.256-14.955-18.858-20.322 c-4.514-3.187-9.431-5.806-14.616-7.72c-3.361,16.717,2.731,35.015,15.445,46.379c0.369,0.33,0.745,0.654,1.126,0.972 c-2.359,0.411-4.689,0.983-6.969,1.714C7.582,68.775,3.634,70.61,0,72.945c8.85,9.963,23.134,14.771,36.208,12.186 c3.524-0.697,7.002-1.919,9.887-4.057c0.073-0.054,0.145-0.111,0.218-0.167c-0.987,5.662-2.714,11.136-5.104,16.221l7.509,2.806 c1.698-5.797,2.631-11.748,2.814-17.669c0.107,0.076,0.215,0.152,0.324,0.225c3.142,2.114,6.863,3.232,10.607,3.796 C76.352,88.379,91.161,82.628,100,71.71C96.061,69.427,91.816,67.684,87.422,66.495z" fill="#f8bc24" transform="scale(1.1279261030930432)"></path>
</g><g transform="translate(1196.526489673005 -100) rotate(0)">
  <animateTransform attributeName="transform" type="translate" keyTimes="0;1" values="1196.526489673005 -100;3416.2329635755473 2100" dur="100s" repeatCount="indefinite" begin="-18.637488743942843s"></animateTransform>
  <animateTransform attributeName="transform" type="rotate" keyTimes="0;1" begin="-18.637488743942843s" values="0 50 50;434.60541238257485 50 50" dur="100s" repeatCount="indefinite" additive="sum"></animateTransform>
  <path d="M87.422,66.495c-2.009-0.544-4.049-0.97-6.107-1.283c10.617-11.116,15.747-27.37,13.129-42.549 c-5.236,1.77-10.223,4.252-14.824,7.313c-4.13,2.747-7.948,5.961-11.374,9.55C67.425,24.863,61.344,10.451,50.991,0 c-4.015,5.451-7.281,11.444-9.753,17.744c-3.579,9.122-5.501,18.893-5.669,28.691c-4.79-7.979-11.256-14.955-18.858-20.322 c-4.514-3.187-9.431-5.806-14.616-7.72c-3.361,16.717,2.731,35.015,15.445,46.379c0.369,0.33,0.745,0.654,1.126,0.972 c-2.359,0.411-4.689,0.983-6.969,1.714C7.582,68.775,3.634,70.61,0,72.945c8.85,9.963,23.134,14.771,36.208,12.186 c3.524-0.697,7.002-1.919,9.887-4.057c0.073-0.054,0.145-0.111,0.218-0.167c-0.987,5.662-2.714,11.136-5.104,16.221l7.509,2.806 c1.698-5.797,2.631-11.748,2.814-17.669c0.107,0.076,0.215,0.152,0.324,0.225c3.142,2.114,6.863,3.232,10.607,3.796 C76.352,88.379,91.161,82.628,100,71.71C96.061,69.427,91.816,67.684,87.422,66.495z" fill="#f8bc24" transform="scale(1.6107095624087169)"></path>
</g><g transform="translate(-100 504.22525912134944) rotate(0)">
  <animateTransform attributeName="transform" type="translate" keyTimes="0;1" values="-100 504.22525912134944;1970.9069692188514 2100" dur="100s" repeatCount="indefinite" begin="-0.7316830366464577s"></animateTransform>
  <animateTransform attributeName="transform" type="rotate" keyTimes="0;1" begin="-0.7316830366464577s" values="0 50 50;829.906697591185 50 50" dur="100s" repeatCount="indefinite" additive="sum"></animateTransform>
  <path d="M87.422,66.495c-2.009-0.544-4.049-0.97-6.107-1.283c10.617-11.116,15.747-27.37,13.129-42.549 c-5.236,1.77-10.223,4.252-14.824,7.313c-4.13,2.747-7.948,5.961-11.374,9.55C67.425,24.863,61.344,10.451,50.991,0 c-4.015,5.451-7.281,11.444-9.753,17.744c-3.579,9.122-5.501,18.893-5.669,28.691c-4.79-7.979-11.256-14.955-18.858-20.322 c-4.514-3.187-9.431-5.806-14.616-7.72c-3.361,16.717,2.731,35.015,15.445,46.379c0.369,0.33,0.745,0.654,1.126,0.972 c-2.359,0.411-4.689,0.983-6.969,1.714C7.582,68.775,3.634,70.61,0,72.945c8.85,9.963,23.134,14.771,36.208,12.186 c3.524-0.697,7.002-1.919,9.887-4.057c0.073-0.054,0.145-0.111,0.218-0.167c-0.987,5.662-2.714,11.136-5.104,16.221l7.509,2.806 c1.698-5.797,2.631-11.748,2.814-17.669c0.107,0.076,0.215,0.152,0.324,0.225c3.142,2.114,6.863,3.232,10.607,3.796 C76.352,88.379,91.161,82.628,100,71.71C96.061,69.427,91.816,67.684,87.422,66.495z" fill="#1a4645" transform="scale(1.8045641850292202)"></path>
</g><g transform="translate(1209.4730157201263 -100) rotate(0)">
  <animateTransform attributeName="transform" type="translate" keyTimes="0;1" values="1209.4730157201263 -100;1604 1325.6684059497945" dur="100s" repeatCount="indefinite" begin="-40.210466836331626s"></animateTransform>
  <animateTransform attributeName="transform" type="rotate" keyTimes="0;1" begin="-40.210466836331626s" values="0 50 50;223.49212429812405 50 50" dur="100s" repeatCount="indefinite" additive="sum"></animateTransform>
  <path d="M87.422,66.495c-2.009-0.544-4.049-0.97-6.107-1.283c10.617-11.116,15.747-27.37,13.129-42.549 c-5.236,1.77-10.223,4.252-14.824,7.313c-4.13,2.747-7.948,5.961-11.374,9.55C67.425,24.863,61.344,10.451,50.991,0 c-4.015,5.451-7.281,11.444-9.753,17.744c-3.579,9.122-5.501,18.893-5.669,28.691c-4.79-7.979-11.256-14.955-18.858-20.322 c-4.514-3.187-9.431-5.806-14.616-7.72c-3.361,16.717,2.731,35.015,15.445,46.379c0.369,0.33,0.745,0.654,1.126,0.972 c-2.359,0.411-4.689,0.983-6.969,1.714C7.582,68.775,3.634,70.61,0,72.945c8.85,9.963,23.134,14.771,36.208,12.186 c3.524-0.697,7.002-1.919,9.887-4.057c0.073-0.054,0.145-0.111,0.218-0.167c-0.987,5.662-2.714,11.136-5.104,16.221l7.509,2.806 c1.698-5.797,2.631-11.748,2.814-17.669c0.107,0.076,0.215,0.152,0.324,0.225c3.142,2.114,6.863,3.232,10.607,3.796 C76.352,88.379,91.161,82.628,100,71.71C96.061,69.427,91.816,67.684,87.422,66.495z" fill="#f58800" transform="scale(1.8688501875538004)"></path>
</g><g transform="translate(297.5174625436399 -100) rotate(0)">
  <animateTransform attributeName="transform" type="translate" keyTimes="0;1" values="297.5174625436399 -100;1933.9058350429427 2100" dur="100s" repeatCount="indefinite" begin="-69.43043781052664s"></animateTransform>
  <animateTransform attributeName="transform" type="rotate" keyTimes="0;1" begin="-69.43043781052664s" values="0 50 50;1067.454393892504 50 50" dur="100s" repeatCount="indefinite" additive="sum"></animateTransform>
  <path d="M87.422,66.495c-2.009-0.544-4.049-0.97-6.107-1.283c10.617-11.116,15.747-27.37,13.129-42.549 c-5.236,1.77-10.223,4.252-14.824,7.313c-4.13,2.747-7.948,5.961-11.374,9.55C67.425,24.863,61.344,10.451,50.991,0 c-4.015,5.451-7.281,11.444-9.753,17.744c-3.579,9.122-5.501,18.893-5.669,28.691c-4.79-7.979-11.256-14.955-18.858-20.322 c-4.514-3.187-9.431-5.806-14.616-7.72c-3.361,16.717,2.731,35.015,15.445,46.379c0.369,0.33,0.745,0.654,1.126,0.972 c-2.359,0.411-4.689,0.983-6.969,1.714C7.582,68.775,3.634,70.61,0,72.945c8.85,9.963,23.134,14.771,36.208,12.186 c3.524-0.697,7.002-1.919,9.887-4.057c0.073-0.054,0.145-0.111,0.218-0.167c-0.987,5.662-2.714,11.136-5.104,16.221l7.509,2.806 c1.698-5.797,2.631-11.748,2.814-17.669c0.107,0.076,0.215,0.152,0.324,0.225c3.142,2.114,6.863,3.232,10.607,3.796 C76.352,88.379,91.161,82.628,100,71.71C96.061,69.427,91.816,67.684,87.422,66.495z" fill="#f8bc24" transform="scale(0.9658517918217575)"></path>
</g><g transform="translate(14.247060518554008 -100) rotate(0)">
  <animateTransform attributeName="transform" type="translate" keyTimes="0;1" values="14.247060518554008 -100;1604 2562.6481875785876" dur="100s" repeatCount="indefinite" begin="-98.784680953965s"></animateTransform>
  <animateTransform attributeName="transform" type="rotate" keyTimes="0;1" begin="-98.784680953965s" values="0 50 50;0.7103632869284748 50 50" dur="100s" repeatCount="indefinite" additive="sum"></animateTransform>
  <path d="M87.422,66.495c-2.009-0.544-4.049-0.97-6.107-1.283c10.617-11.116,15.747-27.37,13.129-42.549 c-5.236,1.77-10.223,4.252-14.824,7.313c-4.13,2.747-7.948,5.961-11.374,9.55C67.425,24.863,61.344,10.451,50.991,0 c-4.015,5.451-7.281,11.444-9.753,17.744c-3.579,9.122-5.501,18.893-5.669,28.691c-4.79-7.979-11.256-14.955-18.858-20.322 c-4.514-3.187-9.431-5.806-14.616-7.72c-3.361,16.717,2.731,35.015,15.445,46.379c0.369,0.33,0.745,0.654,1.126,0.972 c-2.359,0.411-4.689,0.983-6.969,1.714C7.582,68.775,3.634,70.61,0,72.945c8.85,9.963,23.134,14.771,36.208,12.186 c3.524-0.697,7.002-1.919,9.887-4.057c0.073-0.054,0.145-0.111,0.218-0.167c-0.987,5.662-2.714,11.136-5.104,16.221l7.509,2.806 c1.698-5.797,2.631-11.748,2.814-17.669c0.107,0.076,0.215,0.152,0.324,0.225c3.142,2.114,6.863,3.232,10.607,3.796 C76.352,88.379,91.161,82.628,100,71.71C96.061,69.427,91.816,67.684,87.422,66.495z" fill="#f8bc24" transform="scale(1.3265547266467426)"></path>
</g><g transform="translate(1085.1188403866613 -100) rotate(0)">
  <animateTransform attributeName="transform" type="translate" keyTimes="0;1" values="1085.1188403866613 -100;1604 1883.7593500866583" dur="100s" repeatCount="indefinite" begin="-20.562814394214147s"></animateTransform>
  <animateTransform attributeName="transform" type="rotate" keyTimes="0;1" begin="-20.562814394214147s" values="0 50 50;656.8497292453249 50 50" dur="100s" repeatCount="indefinite" additive="sum"></animateTransform>
  <path d="M87.422,66.495c-2.009-0.544-4.049-0.97-6.107-1.283c10.617-11.116,15.747-27.37,13.129-42.549 c-5.236,1.77-10.223,4.252-14.824,7.313c-4.13,2.747-7.948,5.961-11.374,9.55C67.425,24.863,61.344,10.451,50.991,0 c-4.015,5.451-7.281,11.444-9.753,17.744c-3.579,9.122-5.501,18.893-5.669,28.691c-4.79-7.979-11.256-14.955-18.858-20.322 c-4.514-3.187-9.431-5.806-14.616-7.72c-3.361,16.717,2.731,35.015,15.445,46.379c0.369,0.33,0.745,0.654,1.126,0.972 c-2.359,0.411-4.689,0.983-6.969,1.714C7.582,68.775,3.634,70.61,0,72.945c8.85,9.963,23.134,14.771,36.208,12.186 c3.524-0.697,7.002-1.919,9.887-4.057c0.073-0.054,0.145-0.111,0.218-0.167c-0.987,5.662-2.714,11.136-5.104,16.221l7.509,2.806 c1.698-5.797,2.631-11.748,2.814-17.669c0.107,0.076,0.215,0.152,0.324,0.225c3.142,2.114,6.863,3.232,10.607,3.796 C76.352,88.379,91.161,82.628,100,71.71C96.061,69.427,91.816,67.684,87.422,66.495z" fill="#f8bc24" transform="scale(1.2549647156034223)"></path>
</g><g transform="translate(1030.6280175595768 -100) rotate(0)">
  <animateTransform attributeName="transform" type="translate" keyTimes="0;1" values="1030.6280175595768 -100;1604 1235.139199816708" dur="100s" repeatCount="indefinite" begin="-17.03827114038452s"></animateTransform>
  <animateTransform attributeName="transform" type="rotate" keyTimes="0;1" begin="-17.03827114038452s" values="0 50 50;384.6398166676128 50 50" dur="100s" repeatCount="indefinite" additive="sum"></animateTransform>
  <path d="M87.422,66.495c-2.009-0.544-4.049-0.97-6.107-1.283c10.617-11.116,15.747-27.37,13.129-42.549 c-5.236,1.77-10.223,4.252-14.824,7.313c-4.13,2.747-7.948,5.961-11.374,9.55C67.425,24.863,61.344,10.451,50.991,0 c-4.015,5.451-7.281,11.444-9.753,17.744c-3.579,9.122-5.501,18.893-5.669,28.691c-4.79-7.979-11.256-14.955-18.858-20.322 c-4.514-3.187-9.431-5.806-14.616-7.72c-3.361,16.717,2.731,35.015,15.445,46.379c0.369,0.33,0.745,0.654,1.126,0.972 c-2.359,0.411-4.689,0.983-6.969,1.714C7.582,68.775,3.634,70.61,0,72.945c8.85,9.963,23.134,14.771,36.208,12.186 c3.524-0.697,7.002-1.919,9.887-4.057c0.073-0.054,0.145-0.111,0.218-0.167c-0.987,5.662-2.714,11.136-5.104,16.221l7.509,2.806 c1.698-5.797,2.631-11.748,2.814-17.669c0.107,0.076,0.215,0.152,0.324,0.225c3.142,2.114,6.863,3.232,10.607,3.796 C76.352,88.379,91.161,82.628,100,71.71C96.061,69.427,91.816,67.684,87.422,66.495z" fill="#1a4645" transform="scale(1.7535373755599784)"></path>
</g><g transform="translate(418.37497722150584 -100) rotate(0)">
  <animateTransform attributeName="transform" type="translate" keyTimes="0;1" values="418.37497722150584 -100;1771.058167418396 2100" dur="100s" repeatCount="indefinite" begin="-94.5344166101824s"></animateTransform>
  <animateTransform attributeName="transform" type="rotate" keyTimes="0;1" begin="-94.5344166101824s" values="0 50 50;409.3852459426172 50 50" dur="100s" repeatCount="indefinite" additive="sum"></animateTransform>
  <path d="M87.422,66.495c-2.009-0.544-4.049-0.97-6.107-1.283c10.617-11.116,15.747-27.37,13.129-42.549 c-5.236,1.77-10.223,4.252-14.824,7.313c-4.13,2.747-7.948,5.961-11.374,9.55C67.425,24.863,61.344,10.451,50.991,0 c-4.015,5.451-7.281,11.444-9.753,17.744c-3.579,9.122-5.501,18.893-5.669,28.691c-4.79-7.979-11.256-14.955-18.858-20.322 c-4.514-3.187-9.431-5.806-14.616-7.72c-3.361,16.717,2.731,35.015,15.445,46.379c0.369,0.33,0.745,0.654,1.126,0.972 c-2.359,0.411-4.689,0.983-6.969,1.714C7.582,68.775,3.634,70.61,0,72.945c8.85,9.963,23.134,14.771,36.208,12.186 c3.524-0.697,7.002-1.919,9.887-4.057c0.073-0.054,0.145-0.111,0.218-0.167c-0.987,5.662-2.714,11.136-5.104,16.221l7.509,2.806 c1.698-5.797,2.631-11.748,2.814-17.669c0.107,0.076,0.215,0.152,0.324,0.225c3.142,2.114,6.863,3.232,10.607,3.796 C76.352,88.379,91.161,82.628,100,71.71C96.061,69.427,91.816,67.684,87.422,66.495z" fill="#266867" transform="scale(1.1315864840446788)"></path>
</g><g transform="translate(-100 487.8372295915947) rotate(0)">
  <animateTransform attributeName="transform" type="translate" keyTimes="0;1" values="-100 487.8372295915947;1604 3459.8118350987334" dur="100s" repeatCount="indefinite" begin="-28.030214679735543s"></animateTransform>
  <animateTransform attributeName="transform" type="rotate" keyTimes="0;1" begin="-28.030214679735543s" values="0 50 50;387.3109947042472 50 50" dur="100s" repeatCount="indefinite" additive="sum"></animateTransform>
  <path d="M87.422,66.495c-2.009-0.544-4.049-0.97-6.107-1.283c10.617-11.116,15.747-27.37,13.129-42.549 c-5.236,1.77-10.223,4.252-14.824,7.313c-4.13,2.747-7.948,5.961-11.374,9.55C67.425,24.863,61.344,10.451,50.991,0 c-4.015,5.451-7.281,11.444-9.753,17.744c-3.579,9.122-5.501,18.893-5.669,28.691c-4.79-7.979-11.256-14.955-18.858-20.322 c-4.514-3.187-9.431-5.806-14.616-7.72c-3.361,16.717,2.731,35.015,15.445,46.379c0.369,0.33,0.745,0.654,1.126,0.972 c-2.359,0.411-4.689,0.983-6.969,1.714C7.582,68.775,3.634,70.61,0,72.945c8.85,9.963,23.134,14.771,36.208,12.186 c3.524-0.697,7.002-1.919,9.887-4.057c0.073-0.054,0.145-0.111,0.218-0.167c-0.987,5.662-2.714,11.136-5.104,16.221l7.509,2.806 c1.698-5.797,2.631-11.748,2.814-17.669c0.107,0.076,0.215,0.152,0.324,0.225c3.142,2.114,6.863,3.232,10.607,3.796 C76.352,88.379,91.161,82.628,100,71.71C96.061,69.427,91.816,67.684,87.422,66.495z" fill="#1a4645" transform="scale(1.8407238440316052)"></path>
</g><g transform="translate(304.1592046220434 -100) rotate(0)">
  <animateTransform attributeName="transform" type="translate" keyTimes="0;1" values="304.1592046220434 -100;1172.1093733947127 2100" dur="100s" repeatCount="indefinite" begin="-27.763317911191464s"></animateTransform>
  <animateTransform attributeName="transform" type="rotate" keyTimes="0;1" begin="-27.763317911191464s" values="0 50 50;238.70129071740797 50 50" dur="100s" repeatCount="indefinite" additive="sum"></animateTransform>
  <path d="M87.422,66.495c-2.009-0.544-4.049-0.97-6.107-1.283c10.617-11.116,15.747-27.37,13.129-42.549 c-5.236,1.77-10.223,4.252-14.824,7.313c-4.13,2.747-7.948,5.961-11.374,9.55C67.425,24.863,61.344,10.451,50.991,0 c-4.015,5.451-7.281,11.444-9.753,17.744c-3.579,9.122-5.501,18.893-5.669,28.691c-4.79-7.979-11.256-14.955-18.858-20.322 c-4.514-3.187-9.431-5.806-14.616-7.72c-3.361,16.717,2.731,35.015,15.445,46.379c0.369,0.33,0.745,0.654,1.126,0.972 c-2.359,0.411-4.689,0.983-6.969,1.714C7.582,68.775,3.634,70.61,0,72.945c8.85,9.963,23.134,14.771,36.208,12.186 c3.524-0.697,7.002-1.919,9.887-4.057c0.073-0.054,0.145-0.111,0.218-0.167c-0.987,5.662-2.714,11.136-5.104,16.221l7.509,2.806 c1.698-5.797,2.631-11.748,2.814-17.669c0.107,0.076,0.215,0.152,0.324,0.225c3.142,2.114,6.863,3.232,10.607,3.796 C76.352,88.379,91.161,82.628,100,71.71C96.061,69.427,91.816,67.684,87.422,66.495z" fill="#266867" transform="scale(1.6116008343277313)"></path>
</g><g transform="translate(693.6025930700888 -100) rotate(0)">
  <animateTransform attributeName="transform" type="translate" keyTimes="0;1" values="693.6025930700888 -100;2703.5862866203133 2100" dur="100s" repeatCount="indefinite" begin="-44.06694851237874s"></animateTransform>
  <animateTransform attributeName="transform" type="rotate" keyTimes="0;1" begin="-44.06694851237874s" values="0 50 50;751.031025023593 50 50" dur="100s" repeatCount="indefinite" additive="sum"></animateTransform>
  <path d="M87.422,66.495c-2.009-0.544-4.049-0.97-6.107-1.283c10.617-11.116,15.747-27.37,13.129-42.549 c-5.236,1.77-10.223,4.252-14.824,7.313c-4.13,2.747-7.948,5.961-11.374,9.55C67.425,24.863,61.344,10.451,50.991,0 c-4.015,5.451-7.281,11.444-9.753,17.744c-3.579,9.122-5.501,18.893-5.669,28.691c-4.79-7.979-11.256-14.955-18.858-20.322 c-4.514-3.187-9.431-5.806-14.616-7.72c-3.361,16.717,2.731,35.015,15.445,46.379c0.369,0.33,0.745,0.654,1.126,0.972 c-2.359,0.411-4.689,0.983-6.969,1.714C7.582,68.775,3.634,70.61,0,72.945c8.85,9.963,23.134,14.771,36.208,12.186 c3.524-0.697,7.002-1.919,9.887-4.057c0.073-0.054,0.145-0.111,0.218-0.167c-0.987,5.662-2.714,11.136-5.104,16.221l7.509,2.806 c1.698-5.797,2.631-11.748,2.814-17.669c0.107,0.076,0.215,0.152,0.324,0.225c3.142,2.114,6.863,3.232,10.607,3.796 C76.352,88.379,91.161,82.628,100,71.71C96.061,69.427,91.816,67.684,87.422,66.495z" fill="#f58800" transform="scale(2.0809392566522593)"></path>
</g><g transform="translate(509.88420805682364 -100) rotate(0)">
  <animateTransform attributeName="transform" type="translate" keyTimes="0;1" values="509.88420805682364 -100;2333.158053671498 2100" dur="100s" repeatCount="indefinite" begin="-65.55766985795648s"></animateTransform>
  <animateTransform attributeName="transform" type="rotate" keyTimes="0;1" begin="-65.55766985795648s" values="0 50 50;46.31842998894573 50 50" dur="100s" repeatCount="indefinite" additive="sum"></animateTransform>
  <path d="M87.422,66.495c-2.009-0.544-4.049-0.97-6.107-1.283c10.617-11.116,15.747-27.37,13.129-42.549 c-5.236,1.77-10.223,4.252-14.824,7.313c-4.13,2.747-7.948,5.961-11.374,9.55C67.425,24.863,61.344,10.451,50.991,0 c-4.015,5.451-7.281,11.444-9.753,17.744c-3.579,9.122-5.501,18.893-5.669,28.691c-4.79-7.979-11.256-14.955-18.858-20.322 c-4.514-3.187-9.431-5.806-14.616-7.72c-3.361,16.717,2.731,35.015,15.445,46.379c0.369,0.33,0.745,0.654,1.126,0.972 c-2.359,0.411-4.689,0.983-6.969,1.714C7.582,68.775,3.634,70.61,0,72.945c8.85,9.963,23.134,14.771,36.208,12.186 c3.524-0.697,7.002-1.919,9.887-4.057c0.073-0.054,0.145-0.111,0.218-0.167c-0.987,5.662-2.714,11.136-5.104,16.221l7.509,2.806 c1.698-5.797,2.631-11.748,2.814-17.669c0.107,0.076,0.215,0.152,0.324,0.225c3.142,2.114,6.863,3.232,10.607,3.796 C76.352,88.379,91.161,82.628,100,71.71C96.061,69.427,91.816,67.684,87.422,66.495z" fill="#266867" transform="scale(1.3364640866856934)"></path>
</g><g transform="translate(-100 233.84635554906131) rotate(0)">
  <animateTransform attributeName="transform" type="translate" keyTimes="0;1" values="-100 233.84635554906131;1047.2163444613952 2100" dur="100s" repeatCount="indefinite" begin="-92.91512643210578s"></animateTransform>
  <animateTransform attributeName="transform" type="rotate" keyTimes="0;1" begin="-92.91512643210578s" values="0 50 50;287.9030472482147 50 50" dur="100s" repeatCount="indefinite" additive="sum"></animateTransform>
  <path d="M87.422,66.495c-2.009-0.544-4.049-0.97-6.107-1.283c10.617-11.116,15.747-27.37,13.129-42.549 c-5.236,1.77-10.223,4.252-14.824,7.313c-4.13,2.747-7.948,5.961-11.374,9.55C67.425,24.863,61.344,10.451,50.991,0 c-4.015,5.451-7.281,11.444-9.753,17.744c-3.579,9.122-5.501,18.893-5.669,28.691c-4.79-7.979-11.256-14.955-18.858-20.322 c-4.514-3.187-9.431-5.806-14.616-7.72c-3.361,16.717,2.731,35.015,15.445,46.379c0.369,0.33,0.745,0.654,1.126,0.972 c-2.359,0.411-4.689,0.983-6.969,1.714C7.582,68.775,3.634,70.61,0,72.945c8.85,9.963,23.134,14.771,36.208,12.186 c3.524-0.697,7.002-1.919,9.887-4.057c0.073-0.054,0.145-0.111,0.218-0.167c-0.987,5.662-2.714,11.136-5.104,16.221l7.509,2.806 c1.698-5.797,2.631-11.748,2.814-17.669c0.107,0.076,0.215,0.152,0.324,0.225c3.142,2.114,6.863,3.232,10.607,3.796 C76.352,88.379,91.161,82.628,100,71.71C96.061,69.427,91.816,67.684,87.422,66.495z" fill="#f8bc24" transform="scale(0.9903706931678216)"></path>
</g><g transform="translate(918.3514963216539 -100) rotate(0)">
  <animateTransform attributeName="transform" type="translate" keyTimes="0;1" values="918.3514963216539 -100;1604 1536.0916269593115" dur="100s" repeatCount="indefinite" begin="-97.11455999342814s"></animateTransform>
  <animateTransform attributeName="transform" type="rotate" keyTimes="0;1" begin="-97.11455999342814s" values="0 50 50;444.3590896443897 50 50" dur="100s" repeatCount="indefinite" additive="sum"></animateTransform>
  <path d="M87.422,66.495c-2.009-0.544-4.049-0.97-6.107-1.283c10.617-11.116,15.747-27.37,13.129-42.549 c-5.236,1.77-10.223,4.252-14.824,7.313c-4.13,2.747-7.948,5.961-11.374,9.55C67.425,24.863,61.344,10.451,50.991,0 c-4.015,5.451-7.281,11.444-9.753,17.744c-3.579,9.122-5.501,18.893-5.669,28.691c-4.79-7.979-11.256-14.955-18.858-20.322 c-4.514-3.187-9.431-5.806-14.616-7.72c-3.361,16.717,2.731,35.015,15.445,46.379c0.369,0.33,0.745,0.654,1.126,0.972 c-2.359,0.411-4.689,0.983-6.969,1.714C7.582,68.775,3.634,70.61,0,72.945c8.85,9.963,23.134,14.771,36.208,12.186 c3.524-0.697,7.002-1.919,9.887-4.057c0.073-0.054,0.145-0.111,0.218-0.167c-0.987,5.662-2.714,11.136-5.104,16.221l7.509,2.806 c1.698-5.797,2.631-11.748,2.814-17.669c0.107,0.076,0.215,0.152,0.324,0.225c3.142,2.114,6.863,3.232,10.607,3.796 C76.352,88.379,91.161,82.628,100,71.71C96.061,69.427,91.816,67.684,87.422,66.495z" fill="#f8bc24" transform="scale(1.1175130013135928)"></path>
</g><g transform="translate(36.361132971666855 -100) rotate(0)">
  <animateTransform attributeName="transform" type="translate" keyTimes="0;1" values="36.361132971666855 -100;1604 1240.9746812610956" dur="100s" repeatCount="indefinite" begin="-43.23982552197067s"></animateTransform>
  <animateTransform attributeName="transform" type="rotate" keyTimes="0;1" begin="-43.23982552197067s" values="0 50 50;956.784279065219 50 50" dur="100s" repeatCount="indefinite" additive="sum"></animateTransform>
  <path d="M87.422,66.495c-2.009-0.544-4.049-0.97-6.107-1.283c10.617-11.116,15.747-27.37,13.129-42.549 c-5.236,1.77-10.223,4.252-14.824,7.313c-4.13,2.747-7.948,5.961-11.374,9.55C67.425,24.863,61.344,10.451,50.991,0 c-4.015,5.451-7.281,11.444-9.753,17.744c-3.579,9.122-5.501,18.893-5.669,28.691c-4.79-7.979-11.256-14.955-18.858-20.322 c-4.514-3.187-9.431-5.806-14.616-7.72c-3.361,16.717,2.731,35.015,15.445,46.379c0.369,0.33,0.745,0.654,1.126,0.972 c-2.359,0.411-4.689,0.983-6.969,1.714C7.582,68.775,3.634,70.61,0,72.945c8.85,9.963,23.134,14.771,36.208,12.186 c3.524-0.697,7.002-1.919,9.887-4.057c0.073-0.054,0.145-0.111,0.218-0.167c-0.987,5.662-2.714,11.136-5.104,16.221l7.509,2.806 c1.698-5.797,2.631-11.748,2.814-17.669c0.107,0.076,0.215,0.152,0.324,0.225c3.142,2.114,6.863,3.232,10.607,3.796 C76.352,88.379,91.161,82.628,100,71.71C96.061,69.427,91.816,67.684,87.422,66.495z" fill="#1a4645" transform="scale(2.0764288214819113)"></path>
</g><g transform="translate(1227.0237763613022 -100) rotate(0)">
  <animateTransform attributeName="transform" type="translate" keyTimes="0;1" values="1227.0237763613022 -100;1604 1712.0492865994527" dur="100s" repeatCount="indefinite" begin="-80.8023989081186s"></animateTransform>
  <animateTransform attributeName="transform" type="rotate" keyTimes="0;1" begin="-80.8023989081186s" values="0 50 50;659.4966394042503 50 50" dur="100s" repeatCount="indefinite" additive="sum"></animateTransform>
  <path d="M87.422,66.495c-2.009-0.544-4.049-0.97-6.107-1.283c10.617-11.116,15.747-27.37,13.129-42.549 c-5.236,1.77-10.223,4.252-14.824,7.313c-4.13,2.747-7.948,5.961-11.374,9.55C67.425,24.863,61.344,10.451,50.991,0 c-4.015,5.451-7.281,11.444-9.753,17.744c-3.579,9.122-5.501,18.893-5.669,28.691c-4.79-7.979-11.256-14.955-18.858-20.322 c-4.514-3.187-9.431-5.806-14.616-7.72c-3.361,16.717,2.731,35.015,15.445,46.379c0.369,0.33,0.745,0.654,1.126,0.972 c-2.359,0.411-4.689,0.983-6.969,1.714C7.582,68.775,3.634,70.61,0,72.945c8.85,9.963,23.134,14.771,36.208,12.186 c3.524-0.697,7.002-1.919,9.887-4.057c0.073-0.054,0.145-0.111,0.218-0.167c-0.987,5.662-2.714,11.136-5.104,16.221l7.509,2.806 c1.698-5.797,2.631-11.748,2.814-17.669c0.107,0.076,0.215,0.152,0.324,0.225c3.142,2.114,6.863,3.232,10.607,3.796 C76.352,88.379,91.161,82.628,100,71.71C96.061,69.427,91.816,67.684,87.422,66.495z" fill="#1a4645" transform="scale(1.1119549422210693)"></path>
</g><g transform="translate(54.163659772252174 -100) rotate(0)">
  <animateTransform attributeName="transform" type="translate" keyTimes="0;1" values="54.163659772252174 -100;2012.3314684264283 2100" dur="100s" repeatCount="indefinite" begin="-21.20800155952478s"></animateTransform>
  <animateTransform attributeName="transform" type="rotate" keyTimes="0;1" begin="-21.20800155952478s" values="0 50 50;755.2504792916492 50 50" dur="100s" repeatCount="indefinite" additive="sum"></animateTransform>
  <path d="M87.422,66.495c-2.009-0.544-4.049-0.97-6.107-1.283c10.617-11.116,15.747-27.37,13.129-42.549 c-5.236,1.77-10.223,4.252-14.824,7.313c-4.13,2.747-7.948,5.961-11.374,9.55C67.425,24.863,61.344,10.451,50.991,0 c-4.015,5.451-7.281,11.444-9.753,17.744c-3.579,9.122-5.501,18.893-5.669,28.691c-4.79-7.979-11.256-14.955-18.858-20.322 c-4.514-3.187-9.431-5.806-14.616-7.72c-3.361,16.717,2.731,35.015,15.445,46.379c0.369,0.33,0.745,0.654,1.126,0.972 c-2.359,0.411-4.689,0.983-6.969,1.714C7.582,68.775,3.634,70.61,0,72.945c8.85,9.963,23.134,14.771,36.208,12.186 c3.524-0.697,7.002-1.919,9.887-4.057c0.073-0.054,0.145-0.111,0.218-0.167c-0.987,5.662-2.714,11.136-5.104,16.221l7.509,2.806 c1.698-5.797,2.631-11.748,2.814-17.669c0.107,0.076,0.215,0.152,0.324,0.225c3.142,2.114,6.863,3.232,10.607,3.796 C76.352,88.379,91.161,82.628,100,71.71C96.061,69.427,91.816,67.684,87.422,66.495z" fill="#1a4645" transform="scale(1.6160467942060301)"></path>
</g><g transform="translate(764.7309029776644 -100) rotate(0)">
  <animateTransform attributeName="transform" type="translate" keyTimes="0;1" values="764.7309029776644 -100;2408.524243286951 2100" dur="100s" repeatCount="indefinite" begin="-20.8963081812791s"></animateTransform>
  <animateTransform attributeName="transform" type="rotate" keyTimes="0;1" begin="-20.8963081812791s" values="0 50 50;147.47661888778882 50 50" dur="100s" repeatCount="indefinite" additive="sum"></animateTransform>
  <path d="M87.422,66.495c-2.009-0.544-4.049-0.97-6.107-1.283c10.617-11.116,15.747-27.37,13.129-42.549 c-5.236,1.77-10.223,4.252-14.824,7.313c-4.13,2.747-7.948,5.961-11.374,9.55C67.425,24.863,61.344,10.451,50.991,0 c-4.015,5.451-7.281,11.444-9.753,17.744c-3.579,9.122-5.501,18.893-5.669,28.691c-4.79-7.979-11.256-14.955-18.858-20.322 c-4.514-3.187-9.431-5.806-14.616-7.72c-3.361,16.717,2.731,35.015,15.445,46.379c0.369,0.33,0.745,0.654,1.126,0.972 c-2.359,0.411-4.689,0.983-6.969,1.714C7.582,68.775,3.634,70.61,0,72.945c8.85,9.963,23.134,14.771,36.208,12.186 c3.524-0.697,7.002-1.919,9.887-4.057c0.073-0.054,0.145-0.111,0.218-0.167c-0.987,5.662-2.714,11.136-5.104,16.221l7.509,2.806 c1.698-5.797,2.631-11.748,2.814-17.669c0.107,0.076,0.215,0.152,0.324,0.225c3.142,2.114,6.863,3.232,10.607,3.796 C76.352,88.379,91.161,82.628,100,71.71C96.061,69.427,91.816,67.684,87.422,66.495z" fill="#f8bc24" transform="scale(1.4563682766762789)"></path>
</g><g transform="translate(272.1062349937412 -100) rotate(0)">
  <animateTransform attributeName="transform" type="translate" keyTimes="0;1" values="272.1062349937412 -100;1604 2280.480712210682" dur="100s" repeatCount="indefinite" begin="-6.300620668989221s"></animateTransform>
  <animateTransform attributeName="transform" type="rotate" keyTimes="0;1" begin="-6.300620668989221s" values="0 50 50;5.173406450248335 50 50" dur="100s" repeatCount="indefinite" additive="sum"></animateTransform>
  <path d="M87.422,66.495c-2.009-0.544-4.049-0.97-6.107-1.283c10.617-11.116,15.747-27.37,13.129-42.549 c-5.236,1.77-10.223,4.252-14.824,7.313c-4.13,2.747-7.948,5.961-11.374,9.55C67.425,24.863,61.344,10.451,50.991,0 c-4.015,5.451-7.281,11.444-9.753,17.744c-3.579,9.122-5.501,18.893-5.669,28.691c-4.79-7.979-11.256-14.955-18.858-20.322 c-4.514-3.187-9.431-5.806-14.616-7.72c-3.361,16.717,2.731,35.015,15.445,46.379c0.369,0.33,0.745,0.654,1.126,0.972 c-2.359,0.411-4.689,0.983-6.969,1.714C7.582,68.775,3.634,70.61,0,72.945c8.85,9.963,23.134,14.771,36.208,12.186 c3.524-0.697,7.002-1.919,9.887-4.057c0.073-0.054,0.145-0.111,0.218-0.167c-0.987,5.662-2.714,11.136-5.104,16.221l7.509,2.806 c1.698-5.797,2.631-11.748,2.814-17.669c0.107,0.076,0.215,0.152,0.324,0.225c3.142,2.114,6.863,3.232,10.607,3.796 C76.352,88.379,91.161,82.628,100,71.71C96.061,69.427,91.816,67.684,87.422,66.495z" fill="#f58800" transform="scale(1.0596994096443924)"></path>
</g><g transform="translate(-100 201.59801169476265) rotate(0)">
  <animateTransform attributeName="transform" type="translate" keyTimes="0;1" values="-100 201.59801169476265;1058.7987450430371 2100" dur="100s" repeatCount="indefinite" begin="-74.69958006021069s"></animateTransform>
  <animateTransform attributeName="transform" type="rotate" keyTimes="0;1" begin="-74.69958006021069s" values="0 50 50;1009.2854735493339 50 50" dur="100s" repeatCount="indefinite" additive="sum"></animateTransform>
  <path d="M87.422,66.495c-2.009-0.544-4.049-0.97-6.107-1.283c10.617-11.116,15.747-27.37,13.129-42.549 c-5.236,1.77-10.223,4.252-14.824,7.313c-4.13,2.747-7.948,5.961-11.374,9.55C67.425,24.863,61.344,10.451,50.991,0 c-4.015,5.451-7.281,11.444-9.753,17.744c-3.579,9.122-5.501,18.893-5.669,28.691c-4.79-7.979-11.256-14.955-18.858-20.322 c-4.514-3.187-9.431-5.806-14.616-7.72c-3.361,16.717,2.731,35.015,15.445,46.379c0.369,0.33,0.745,0.654,1.126,0.972 c-2.359,0.411-4.689,0.983-6.969,1.714C7.582,68.775,3.634,70.61,0,72.945c8.85,9.963,23.134,14.771,36.208,12.186 c3.524-0.697,7.002-1.919,9.887-4.057c0.073-0.054,0.145-0.111,0.218-0.167c-0.987,5.662-2.714,11.136-5.104,16.221l7.509,2.806 c1.698-5.797,2.631-11.748,2.814-17.669c0.107,0.076,0.215,0.152,0.324,0.225c3.142,2.114,6.863,3.232,10.607,3.796 C76.352,88.379,91.161,82.628,100,71.71C96.061,69.427,91.816,67.684,87.422,66.495z" fill="#f58800" transform="scale(1.6637173772146092)"></path>
</g><g transform="translate(-100 666.8262979639321) rotate(0)">
  <animateTransform attributeName="transform" type="translate" keyTimes="0;1" values="-100 666.8262979639321;1714.9547144195915 2100" dur="100s" repeatCount="indefinite" begin="-10.297670114379432s"></animateTransform>
  <animateTransform attributeName="transform" type="rotate" keyTimes="0;1" begin="-10.297670114379432s" values="0 50 50;445.7976239122249 50 50" dur="100s" repeatCount="indefinite" additive="sum"></animateTransform>
  <path d="M87.422,66.495c-2.009-0.544-4.049-0.97-6.107-1.283c10.617-11.116,15.747-27.37,13.129-42.549 c-5.236,1.77-10.223,4.252-14.824,7.313c-4.13,2.747-7.948,5.961-11.374,9.55C67.425,24.863,61.344,10.451,50.991,0 c-4.015,5.451-7.281,11.444-9.753,17.744c-3.579,9.122-5.501,18.893-5.669,28.691c-4.79-7.979-11.256-14.955-18.858-20.322 c-4.514-3.187-9.431-5.806-14.616-7.72c-3.361,16.717,2.731,35.015,15.445,46.379c0.369,0.33,0.745,0.654,1.126,0.972 c-2.359,0.411-4.689,0.983-6.969,1.714C7.582,68.775,3.634,70.61,0,72.945c8.85,9.963,23.134,14.771,36.208,12.186 c3.524-0.697,7.002-1.919,9.887-4.057c0.073-0.054,0.145-0.111,0.218-0.167c-0.987,5.662-2.714,11.136-5.104,16.221l7.509,2.806 c1.698-5.797,2.631-11.748,2.814-17.669c0.107,0.076,0.215,0.152,0.324,0.225c3.142,2.114,6.863,3.232,10.607,3.796 C76.352,88.379,91.161,82.628,100,71.71C96.061,69.427,91.816,67.684,87.422,66.495z" fill="#1a4645" transform="scale(1.3412809144259374)"></path>
</g><g transform="translate(-100 231.8634183194519) rotate(0)">
  <animateTransform attributeName="transform" type="translate" keyTimes="0;1" values="-100 231.8634183194519;1604 2431.3141124165363" dur="100s" repeatCount="indefinite" begin="-80.0525357382671s"></animateTransform>
  <animateTransform attributeName="transform" type="rotate" keyTimes="0;1" begin="-80.0525357382671s" values="0 50 50;770.4204116391709 50 50" dur="100s" repeatCount="indefinite" additive="sum"></animateTransform>
  <path d="M87.422,66.495c-2.009-0.544-4.049-0.97-6.107-1.283c10.617-11.116,15.747-27.37,13.129-42.549 c-5.236,1.77-10.223,4.252-14.824,7.313c-4.13,2.747-7.948,5.961-11.374,9.55C67.425,24.863,61.344,10.451,50.991,0 c-4.015,5.451-7.281,11.444-9.753,17.744c-3.579,9.122-5.501,18.893-5.669,28.691c-4.79-7.979-11.256-14.955-18.858-20.322 c-4.514-3.187-9.431-5.806-14.616-7.72c-3.361,16.717,2.731,35.015,15.445,46.379c0.369,0.33,0.745,0.654,1.126,0.972 c-2.359,0.411-4.689,0.983-6.969,1.714C7.582,68.775,3.634,70.61,0,72.945c8.85,9.963,23.134,14.771,36.208,12.186 c3.524-0.697,7.002-1.919,9.887-4.057c0.073-0.054,0.145-0.111,0.218-0.167c-0.987,5.662-2.714,11.136-5.104,16.221l7.509,2.806 c1.698-5.797,2.631-11.748,2.814-17.669c0.107,0.076,0.215,0.152,0.324,0.225c3.142,2.114,6.863,3.232,10.607,3.796 C76.352,88.379,91.161,82.628,100,71.71C96.061,69.427,91.816,67.684,87.422,66.495z" fill="#1a4645" transform="scale(0.9783838681529231)"></path>
</g><g transform="translate(621.8030828381603 -100) rotate(0)">
  <animateTransform attributeName="transform" type="translate" keyTimes="0;1" values="621.8030828381603 -100;1410.5846885831495 2100" dur="100s" repeatCount="indefinite" begin="-80.57918501016982s"></animateTransform>
  <animateTransform attributeName="transform" type="rotate" keyTimes="0;1" begin="-80.57918501016982s" values="0 50 50;78.15659767888617 50 50" dur="100s" repeatCount="indefinite" additive="sum"></animateTransform>
  <path d="M87.422,66.495c-2.009-0.544-4.049-0.97-6.107-1.283c10.617-11.116,15.747-27.37,13.129-42.549 c-5.236,1.77-10.223,4.252-14.824,7.313c-4.13,2.747-7.948,5.961-11.374,9.55C67.425,24.863,61.344,10.451,50.991,0 c-4.015,5.451-7.281,11.444-9.753,17.744c-3.579,9.122-5.501,18.893-5.669,28.691c-4.79-7.979-11.256-14.955-18.858-20.322 c-4.514-3.187-9.431-5.806-14.616-7.72c-3.361,16.717,2.731,35.015,15.445,46.379c0.369,0.33,0.745,0.654,1.126,0.972 c-2.359,0.411-4.689,0.983-6.969,1.714C7.582,68.775,3.634,70.61,0,72.945c8.85,9.963,23.134,14.771,36.208,12.186 c3.524-0.697,7.002-1.919,9.887-4.057c0.073-0.054,0.145-0.111,0.218-0.167c-0.987,5.662-2.714,11.136-5.104,16.221l7.509,2.806 c1.698-5.797,2.631-11.748,2.814-17.669c0.107,0.076,0.215,0.152,0.324,0.225c3.142,2.114,6.863,3.232,10.607,3.796 C76.352,88.379,91.161,82.628,100,71.71C96.061,69.427,91.816,67.684,87.422,66.495z" fill="#266867" transform="scale(1.0922987695669932)"></path>
</g><g transform="translate(-100 381.89770111172663) rotate(0)">
  <animateTransform attributeName="transform" type="translate" keyTimes="0;1" values="-100 381.89770111172663;2117.822416664875 2100" dur="100s" repeatCount="indefinite" begin="-32.68422581206878s"></animateTransform>
  <animateTransform attributeName="transform" type="rotate" keyTimes="0;1" begin="-32.68422581206878s" values="0 50 50;175.8771545032645 50 50" dur="100s" repeatCount="indefinite" additive="sum"></animateTransform>
  <path d="M87.422,66.495c-2.009-0.544-4.049-0.97-6.107-1.283c10.617-11.116,15.747-27.37,13.129-42.549 c-5.236,1.77-10.223,4.252-14.824,7.313c-4.13,2.747-7.948,5.961-11.374,9.55C67.425,24.863,61.344,10.451,50.991,0 c-4.015,5.451-7.281,11.444-9.753,17.744c-3.579,9.122-5.501,18.893-5.669,28.691c-4.79-7.979-11.256-14.955-18.858-20.322 c-4.514-3.187-9.431-5.806-14.616-7.72c-3.361,16.717,2.731,35.015,15.445,46.379c0.369,0.33,0.745,0.654,1.126,0.972 c-2.359,0.411-4.689,0.983-6.969,1.714C7.582,68.775,3.634,70.61,0,72.945c8.85,9.963,23.134,14.771,36.208,12.186 c3.524-0.697,7.002-1.919,9.887-4.057c0.073-0.054,0.145-0.111,0.218-0.167c-0.987,5.662-2.714,11.136-5.104,16.221l7.509,2.806 c1.698-5.797,2.631-11.748,2.814-17.669c0.107,0.076,0.215,0.152,0.324,0.225c3.142,2.114,6.863,3.232,10.607,3.796 C76.352,88.379,91.161,82.628,100,71.71C96.061,69.427,91.816,67.684,87.422,66.495z" fill="#f58800" transform="scale(2.0194668891326044)"></path>
</g><g transform="translate(1107.8141608751723 -100) rotate(0)">
  <animateTransform attributeName="transform" type="translate" keyTimes="0;1" values="1107.8141608751723 -100;1604 1474.6275734460337" dur="100s" repeatCount="indefinite" begin="-28.968333948427016s"></animateTransform>
  <animateTransform attributeName="transform" type="rotate" keyTimes="0;1" begin="-28.968333948427016s" values="0 50 50;561.8158829895373 50 50" dur="100s" repeatCount="indefinite" additive="sum"></animateTransform>
  <path d="M87.422,66.495c-2.009-0.544-4.049-0.97-6.107-1.283c10.617-11.116,15.747-27.37,13.129-42.549 c-5.236,1.77-10.223,4.252-14.824,7.313c-4.13,2.747-7.948,5.961-11.374,9.55C67.425,24.863,61.344,10.451,50.991,0 c-4.015,5.451-7.281,11.444-9.753,17.744c-3.579,9.122-5.501,18.893-5.669,28.691c-4.79-7.979-11.256-14.955-18.858-20.322 c-4.514-3.187-9.431-5.806-14.616-7.72c-3.361,16.717,2.731,35.015,15.445,46.379c0.369,0.33,0.745,0.654,1.126,0.972 c-2.359,0.411-4.689,0.983-6.969,1.714C7.582,68.775,3.634,70.61,0,72.945c8.85,9.963,23.134,14.771,36.208,12.186 c3.524-0.697,7.002-1.919,9.887-4.057c0.073-0.054,0.145-0.111,0.218-0.167c-0.987,5.662-2.714,11.136-5.104,16.221l7.509,2.806 c1.698-5.797,2.631-11.748,2.814-17.669c0.107,0.076,0.215,0.152,0.324,0.225c3.142,2.114,6.863,3.232,10.607,3.796 C76.352,88.379,91.161,82.628,100,71.71C96.061,69.427,91.816,67.684,87.422,66.495z" fill="#266867" transform="scale(1.151383095177697)"></path>
</g><g transform="translate(-100 96.41032477317823) rotate(0)">
  <animateTransform attributeName="transform" type="translate" keyTimes="0;1" values="-100 96.41032477317823;858.0898422330258 2100" dur="100s" repeatCount="indefinite" begin="-19.877202254364335s"></animateTransform>
  <animateTransform attributeName="transform" type="rotate" keyTimes="0;1" begin="-19.877202254364335s" values="0 50 50;251.1771398552482 50 50" dur="100s" repeatCount="indefinite" additive="sum"></animateTransform>
  <path d="M87.422,66.495c-2.009-0.544-4.049-0.97-6.107-1.283c10.617-11.116,15.747-27.37,13.129-42.549 c-5.236,1.77-10.223,4.252-14.824,7.313c-4.13,2.747-7.948,5.961-11.374,9.55C67.425,24.863,61.344,10.451,50.991,0 c-4.015,5.451-7.281,11.444-9.753,17.744c-3.579,9.122-5.501,18.893-5.669,28.691c-4.79-7.979-11.256-14.955-18.858-20.322 c-4.514-3.187-9.431-5.806-14.616-7.72c-3.361,16.717,2.731,35.015,15.445,46.379c0.369,0.33,0.745,0.654,1.126,0.972 c-2.359,0.411-4.689,0.983-6.969,1.714C7.582,68.775,3.634,70.61,0,72.945c8.85,9.963,23.134,14.771,36.208,12.186 c3.524-0.697,7.002-1.919,9.887-4.057c0.073-0.054,0.145-0.111,0.218-0.167c-0.987,5.662-2.714,11.136-5.104,16.221l7.509,2.806 c1.698-5.797,2.631-11.748,2.814-17.669c0.107,0.076,0.215,0.152,0.324,0.225c3.142,2.114,6.863,3.232,10.607,3.796 C76.352,88.379,91.161,82.628,100,71.71C96.061,69.427,91.816,67.684,87.422,66.495z" fill="#f8bc24" transform="scale(1.6382173295780942)"></path>
</g><g transform="translate(-100 453.1824569951253) rotate(0)">
  <animateTransform attributeName="transform" type="translate" keyTimes="0;1" values="-100 453.1824569951253;1495.7072442282542 2100" dur="100s" repeatCount="indefinite" begin="-86.55662219142508s"></animateTransform>
  <animateTransform attributeName="transform" type="rotate" keyTimes="0;1" begin="-86.55662219142508s" values="0 50 50;931.8301715740957 50 50" dur="100s" repeatCount="indefinite" additive="sum"></animateTransform>
  <path d="M87.422,66.495c-2.009-0.544-4.049-0.97-6.107-1.283c10.617-11.116,15.747-27.37,13.129-42.549 c-5.236,1.77-10.223,4.252-14.824,7.313c-4.13,2.747-7.948,5.961-11.374,9.55C67.425,24.863,61.344,10.451,50.991,0 c-4.015,5.451-7.281,11.444-9.753,17.744c-3.579,9.122-5.501,18.893-5.669,28.691c-4.79-7.979-11.256-14.955-18.858-20.322 c-4.514-3.187-9.431-5.806-14.616-7.72c-3.361,16.717,2.731,35.015,15.445,46.379c0.369,0.33,0.745,0.654,1.126,0.972 c-2.359,0.411-4.689,0.983-6.969,1.714C7.582,68.775,3.634,70.61,0,72.945c8.85,9.963,23.134,14.771,36.208,12.186 c3.524-0.697,7.002-1.919,9.887-4.057c0.073-0.054,0.145-0.111,0.218-0.167c-0.987,5.662-2.714,11.136-5.104,16.221l7.509,2.806 c1.698-5.797,2.631-11.748,2.814-17.669c0.107,0.076,0.215,0.152,0.324,0.225c3.142,2.114,6.863,3.232,10.607,3.796 C76.352,88.379,91.161,82.628,100,71.71C96.061,69.427,91.816,67.684,87.422,66.495z" fill="#f8bc24" transform="scale(1.292353706487863)"></path>
</g><g transform="translate(921.6504053469014 -100) rotate(0)">
  <animateTransform attributeName="transform" type="translate" keyTimes="0;1" values="921.6504053469014 -100;1687.4637312819239 2100" dur="100s" repeatCount="indefinite" begin="-55.96882187401944s"></animateTransform>
  <animateTransform attributeName="transform" type="rotate" keyTimes="0;1" begin="-55.96882187401944s" values="0 50 50;331.700584993985 50 50" dur="100s" repeatCount="indefinite" additive="sum"></animateTransform>
  <path d="M87.422,66.495c-2.009-0.544-4.049-0.97-6.107-1.283c10.617-11.116,15.747-27.37,13.129-42.549 c-5.236,1.77-10.223,4.252-14.824,7.313c-4.13,2.747-7.948,5.961-11.374,9.55C67.425,24.863,61.344,10.451,50.991,0 c-4.015,5.451-7.281,11.444-9.753,17.744c-3.579,9.122-5.501,18.893-5.669,28.691c-4.79-7.979-11.256-14.955-18.858-20.322 c-4.514-3.187-9.431-5.806-14.616-7.72c-3.361,16.717,2.731,35.015,15.445,46.379c0.369,0.33,0.745,0.654,1.126,0.972 c-2.359,0.411-4.689,0.983-6.969,1.714C7.582,68.775,3.634,70.61,0,72.945c8.85,9.963,23.134,14.771,36.208,12.186 c3.524-0.697,7.002-1.919,9.887-4.057c0.073-0.054,0.145-0.111,0.218-0.167c-0.987,5.662-2.714,11.136-5.104,16.221l7.509,2.806 c1.698-5.797,2.631-11.748,2.814-17.669c0.107,0.076,0.215,0.152,0.324,0.225c3.142,2.114,6.863,3.232,10.607,3.796 C76.352,88.379,91.161,82.628,100,71.71C96.061,69.427,91.816,67.684,87.422,66.495z" fill="#f8bc24" transform="scale(1.8767379331924259)"></path>
</g><g transform="translate(-100 710.8297701209632) rotate(0)">
  <animateTransform attributeName="transform" type="translate" keyTimes="0;1" values="-100 710.8297701209632;1131.00906578685 2100" dur="100s" repeatCount="indefinite" begin="-59.033988008987784s"></animateTransform>
  <animateTransform attributeName="transform" type="rotate" keyTimes="0;1" begin="-59.033988008987784s" values="0 50 50;22.21333450852356 50 50" dur="100s" repeatCount="indefinite" additive="sum"></animateTransform>
  <path d="M87.422,66.495c-2.009-0.544-4.049-0.97-6.107-1.283c10.617-11.116,15.747-27.37,13.129-42.549 c-5.236,1.77-10.223,4.252-14.824,7.313c-4.13,2.747-7.948,5.961-11.374,9.55C67.425,24.863,61.344,10.451,50.991,0 c-4.015,5.451-7.281,11.444-9.753,17.744c-3.579,9.122-5.501,18.893-5.669,28.691c-4.79-7.979-11.256-14.955-18.858-20.322 c-4.514-3.187-9.431-5.806-14.616-7.72c-3.361,16.717,2.731,35.015,15.445,46.379c0.369,0.33,0.745,0.654,1.126,0.972 c-2.359,0.411-4.689,0.983-6.969,1.714C7.582,68.775,3.634,70.61,0,72.945c8.85,9.963,23.134,14.771,36.208,12.186 c3.524-0.697,7.002-1.919,9.887-4.057c0.073-0.054,0.145-0.111,0.218-0.167c-0.987,5.662-2.714,11.136-5.104,16.221l7.509,2.806 c1.698-5.797,2.631-11.748,2.814-17.669c0.107,0.076,0.215,0.152,0.324,0.225c3.142,2.114,6.863,3.232,10.607,3.796 C76.352,88.379,91.161,82.628,100,71.71C96.061,69.427,91.816,67.684,87.422,66.495z" fill="#1a4645" transform="scale(1.2240607262207155)"></path>
</g><g transform="translate(1147.791225243985 -100) rotate(0)">
  <animateTransform attributeName="transform" type="translate" keyTimes="0;1" values="1147.791225243985 -100;1604 2182.580618670214" dur="100s" repeatCount="indefinite" begin="-37.63278230651075s"></animateTransform>
  <animateTransform attributeName="transform" type="rotate" keyTimes="0;1" begin="-37.63278230651075s" values="0 50 50;680.8103497843263 50 50" dur="100s" repeatCount="indefinite" additive="sum"></animateTransform>
  <path d="M87.422,66.495c-2.009-0.544-4.049-0.97-6.107-1.283c10.617-11.116,15.747-27.37,13.129-42.549 c-5.236,1.77-10.223,4.252-14.824,7.313c-4.13,2.747-7.948,5.961-11.374,9.55C67.425,24.863,61.344,10.451,50.991,0 c-4.015,5.451-7.281,11.444-9.753,17.744c-3.579,9.122-5.501,18.893-5.669,28.691c-4.79-7.979-11.256-14.955-18.858-20.322 c-4.514-3.187-9.431-5.806-14.616-7.72c-3.361,16.717,2.731,35.015,15.445,46.379c0.369,0.33,0.745,0.654,1.126,0.972 c-2.359,0.411-4.689,0.983-6.969,1.714C7.582,68.775,3.634,70.61,0,72.945c8.85,9.963,23.134,14.771,36.208,12.186 c3.524-0.697,7.002-1.919,9.887-4.057c0.073-0.054,0.145-0.111,0.218-0.167c-0.987,5.662-2.714,11.136-5.104,16.221l7.509,2.806 c1.698-5.797,2.631-11.748,2.814-17.669c0.107,0.076,0.215,0.152,0.324,0.225c3.142,2.114,6.863,3.232,10.607,3.796 C76.352,88.379,91.161,82.628,100,71.71C96.061,69.427,91.816,67.684,87.422,66.495z" fill="#f8bc24" transform="scale(1.3096836899364854)"></path>
</g><g transform="translate(-100 95.70439656294516) rotate(0)">
  <animateTransform attributeName="transform" type="translate" keyTimes="0;1" values="-100 95.70439656294516;1604 1445.127671393193" dur="100s" repeatCount="indefinite" begin="-70.9283954697151s"></animateTransform>
  <animateTransform attributeName="transform" type="rotate" keyTimes="0;1" begin="-70.9283954697151s" values="0 50 50;193.00776002895176 50 50" dur="100s" repeatCount="indefinite" additive="sum"></animateTransform>
  <path d="M87.422,66.495c-2.009-0.544-4.049-0.97-6.107-1.283c10.617-11.116,15.747-27.37,13.129-42.549 c-5.236,1.77-10.223,4.252-14.824,7.313c-4.13,2.747-7.948,5.961-11.374,9.55C67.425,24.863,61.344,10.451,50.991,0 c-4.015,5.451-7.281,11.444-9.753,17.744c-3.579,9.122-5.501,18.893-5.669,28.691c-4.79-7.979-11.256-14.955-18.858-20.322 c-4.514-3.187-9.431-5.806-14.616-7.72c-3.361,16.717,2.731,35.015,15.445,46.379c0.369,0.33,0.745,0.654,1.126,0.972 c-2.359,0.411-4.689,0.983-6.969,1.714C7.582,68.775,3.634,70.61,0,72.945c8.85,9.963,23.134,14.771,36.208,12.186 c3.524-0.697,7.002-1.919,9.887-4.057c0.073-0.054,0.145-0.111,0.218-0.167c-0.987,5.662-2.714,11.136-5.104,16.221l7.509,2.806 c1.698-5.797,2.631-11.748,2.814-17.669c0.107,0.076,0.215,0.152,0.324,0.225c3.142,2.114,6.863,3.232,10.607,3.796 C76.352,88.379,91.161,82.628,100,71.71C96.061,69.427,91.816,67.684,87.422,66.495z" fill="#266867" transform="scale(1.6062787046778333)"></path>
</g><g transform="translate(-100 882.6247211271079) rotate(0)">
  <animateTransform attributeName="transform" type="translate" keyTimes="0;1" values="-100 882.6247211271079;1117.5009018961475 2100" dur="100s" repeatCount="indefinite" begin="-62.39455104901397s"></animateTransform>
  <animateTransform attributeName="transform" type="rotate" keyTimes="0;1" begin="-62.39455104901397s" values="0 50 50;1010.6834726952787 50 50" dur="100s" repeatCount="indefinite" additive="sum"></animateTransform>
  <path d="M87.422,66.495c-2.009-0.544-4.049-0.97-6.107-1.283c10.617-11.116,15.747-27.37,13.129-42.549 c-5.236,1.77-10.223,4.252-14.824,7.313c-4.13,2.747-7.948,5.961-11.374,9.55C67.425,24.863,61.344,10.451,50.991,0 c-4.015,5.451-7.281,11.444-9.753,17.744c-3.579,9.122-5.501,18.893-5.669,28.691c-4.79-7.979-11.256-14.955-18.858-20.322 c-4.514-3.187-9.431-5.806-14.616-7.72c-3.361,16.717,2.731,35.015,15.445,46.379c0.369,0.33,0.745,0.654,1.126,0.972 c-2.359,0.411-4.689,0.983-6.969,1.714C7.582,68.775,3.634,70.61,0,72.945c8.85,9.963,23.134,14.771,36.208,12.186 c3.524-0.697,7.002-1.919,9.887-4.057c0.073-0.054,0.145-0.111,0.218-0.167c-0.987,5.662-2.714,11.136-5.104,16.221l7.509,2.806 c1.698-5.797,2.631-11.748,2.814-17.669c0.107,0.076,0.215,0.152,0.324,0.225c3.142,2.114,6.863,3.232,10.607,3.796 C76.352,88.379,91.161,82.628,100,71.71C96.061,69.427,91.816,67.684,87.422,66.495z" fill="#f58800" transform="scale(1.1867807864374773)"></path>
</g><g transform="translate(1039.158870854517 -100) rotate(0)">
  <animateTransform attributeName="transform" type="translate" keyTimes="0;1" values="1039.158870854517 -100;1949.5818504746994 2100" dur="100s" repeatCount="indefinite" begin="-60.41105674434526s"></animateTransform>
  <animateTransform attributeName="transform" type="rotate" keyTimes="0;1" begin="-60.41105674434526s" values="0 50 50;61.574752255662744 50 50" dur="100s" repeatCount="indefinite" additive="sum"></animateTransform>
  <path d="M87.422,66.495c-2.009-0.544-4.049-0.97-6.107-1.283c10.617-11.116,15.747-27.37,13.129-42.549 c-5.236,1.77-10.223,4.252-14.824,7.313c-4.13,2.747-7.948,5.961-11.374,9.55C67.425,24.863,61.344,10.451,50.991,0 c-4.015,5.451-7.281,11.444-9.753,17.744c-3.579,9.122-5.501,18.893-5.669,28.691c-4.79-7.979-11.256-14.955-18.858-20.322 c-4.514-3.187-9.431-5.806-14.616-7.72c-3.361,16.717,2.731,35.015,15.445,46.379c0.369,0.33,0.745,0.654,1.126,0.972 c-2.359,0.411-4.689,0.983-6.969,1.714C7.582,68.775,3.634,70.61,0,72.945c8.85,9.963,23.134,14.771,36.208,12.186 c3.524-0.697,7.002-1.919,9.887-4.057c0.073-0.054,0.145-0.111,0.218-0.167c-0.987,5.662-2.714,11.136-5.104,16.221l7.509,2.806 c1.698-5.797,2.631-11.748,2.814-17.669c0.107,0.076,0.215,0.152,0.324,0.225c3.142,2.114,6.863,3.232,10.607,3.796 C76.352,88.379,91.161,82.628,100,71.71C96.061,69.427,91.816,67.684,87.422,66.495z" fill="#1a4645" transform="scale(1.0925842704641522)"></path>
</g><g transform="translate(1160.6107349200272 -100) rotate(0)">
  <animateTransform attributeName="transform" type="translate" keyTimes="0;1" values="1160.6107349200272 -100;2825.9223878146067 2100" dur="100s" repeatCount="indefinite" begin="-46.20421542491464s"></animateTransform>
  <animateTransform attributeName="transform" type="rotate" keyTimes="0;1" begin="-46.20421542491464s" values="0 50 50;1053.4038295448693 50 50" dur="100s" repeatCount="indefinite" additive="sum"></animateTransform>
  <path d="M87.422,66.495c-2.009-0.544-4.049-0.97-6.107-1.283c10.617-11.116,15.747-27.37,13.129-42.549 c-5.236,1.77-10.223,4.252-14.824,7.313c-4.13,2.747-7.948,5.961-11.374,9.55C67.425,24.863,61.344,10.451,50.991,0 c-4.015,5.451-7.281,11.444-9.753,17.744c-3.579,9.122-5.501,18.893-5.669,28.691c-4.79-7.979-11.256-14.955-18.858-20.322 c-4.514-3.187-9.431-5.806-14.616-7.72c-3.361,16.717,2.731,35.015,15.445,46.379c0.369,0.33,0.745,0.654,1.126,0.972 c-2.359,0.411-4.689,0.983-6.969,1.714C7.582,68.775,3.634,70.61,0,72.945c8.85,9.963,23.134,14.771,36.208,12.186 c3.524-0.697,7.002-1.919,9.887-4.057c0.073-0.054,0.145-0.111,0.218-0.167c-0.987,5.662-2.714,11.136-5.104,16.221l7.509,2.806 c1.698-5.797,2.631-11.748,2.814-17.669c0.107,0.076,0.215,0.152,0.324,0.225c3.142,2.114,6.863,3.232,10.607,3.796 C76.352,88.379,91.161,82.628,100,71.71C96.061,69.427,91.816,67.684,87.422,66.495z" fill="#1a4645" transform="scale(0.9613363517153306)"></path>
</g><g transform="translate(-100 674.5513178748448) rotate(0)">
  <animateTransform attributeName="transform" type="translate" keyTimes="0;1" values="-100 674.5513178748448;1072.6427016483774 2100" dur="100s" repeatCount="indefinite" begin="-69.43216456709769s"></animateTransform>
  <animateTransform attributeName="transform" type="rotate" keyTimes="0;1" begin="-69.43216456709769s" values="0 50 50;591.3179943920113 50 50" dur="100s" repeatCount="indefinite" additive="sum"></animateTransform>
  <path d="M87.422,66.495c-2.009-0.544-4.049-0.97-6.107-1.283c10.617-11.116,15.747-27.37,13.129-42.549 c-5.236,1.77-10.223,4.252-14.824,7.313c-4.13,2.747-7.948,5.961-11.374,9.55C67.425,24.863,61.344,10.451,50.991,0 c-4.015,5.451-7.281,11.444-9.753,17.744c-3.579,9.122-5.501,18.893-5.669,28.691c-4.79-7.979-11.256-14.955-18.858-20.322 c-4.514-3.187-9.431-5.806-14.616-7.72c-3.361,16.717,2.731,35.015,15.445,46.379c0.369,0.33,0.745,0.654,1.126,0.972 c-2.359,0.411-4.689,0.983-6.969,1.714C7.582,68.775,3.634,70.61,0,72.945c8.85,9.963,23.134,14.771,36.208,12.186 c3.524-0.697,7.002-1.919,9.887-4.057c0.073-0.054,0.145-0.111,0.218-0.167c-0.987,5.662-2.714,11.136-5.104,16.221l7.509,2.806 c1.698-5.797,2.631-11.748,2.814-17.669c0.107,0.076,0.215,0.152,0.324,0.225c3.142,2.114,6.863,3.232,10.607,3.796 C76.352,88.379,91.161,82.628,100,71.71C96.061,69.427,91.816,67.684,87.422,66.495z" fill="#1a4645" transform="scale(1.272915595578315)"></path>
</g><g transform="translate(-100 803.9374252061131) rotate(0)">
  <animateTransform attributeName="transform" type="translate" keyTimes="0;1" values="-100 803.9374252061131;1488.7478238624399 2100" dur="100s" repeatCount="indefinite" begin="-11.383547892252711s"></animateTransform>
  <animateTransform attributeName="transform" type="rotate" keyTimes="0;1" begin="-11.383547892252711s" values="0 50 50;915.6960706181135 50 50" dur="100s" repeatCount="indefinite" additive="sum"></animateTransform>
  <path d="M87.422,66.495c-2.009-0.544-4.049-0.97-6.107-1.283c10.617-11.116,15.747-27.37,13.129-42.549 c-5.236,1.77-10.223,4.252-14.824,7.313c-4.13,2.747-7.948,5.961-11.374,9.55C67.425,24.863,61.344,10.451,50.991,0 c-4.015,5.451-7.281,11.444-9.753,17.744c-3.579,9.122-5.501,18.893-5.669,28.691c-4.79-7.979-11.256-14.955-18.858-20.322 c-4.514-3.187-9.431-5.806-14.616-7.72c-3.361,16.717,2.731,35.015,15.445,46.379c0.369,0.33,0.745,0.654,1.126,0.972 c-2.359,0.411-4.689,0.983-6.969,1.714C7.582,68.775,3.634,70.61,0,72.945c8.85,9.963,23.134,14.771,36.208,12.186 c3.524-0.697,7.002-1.919,9.887-4.057c0.073-0.054,0.145-0.111,0.218-0.167c-0.987,5.662-2.714,11.136-5.104,16.221l7.509,2.806 c1.698-5.797,2.631-11.748,2.814-17.669c0.107,0.076,0.215,0.152,0.324,0.225c3.142,2.114,6.863,3.232,10.607,3.796 C76.352,88.379,91.161,82.628,100,71.71C96.061,69.427,91.816,67.684,87.422,66.495z" fill="#f8bc24" transform="scale(2.032725842286208)"></path>
</g><g transform="translate(564.8965434914124 -100) rotate(0)">
  <animateTransform attributeName="transform" type="translate" keyTimes="0;1" values="564.8965434914124 -100;2808.495736485323 2100" dur="100s" repeatCount="indefinite" begin="-23.31294366188996s"></animateTransform>
  <animateTransform attributeName="transform" type="rotate" keyTimes="0;1" begin="-23.31294366188996s" values="0 50 50;76.97605567107915 50 50" dur="100s" repeatCount="indefinite" additive="sum"></animateTransform>
  <path d="M87.422,66.495c-2.009-0.544-4.049-0.97-6.107-1.283c10.617-11.116,15.747-27.37,13.129-42.549 c-5.236,1.77-10.223,4.252-14.824,7.313c-4.13,2.747-7.948,5.961-11.374,9.55C67.425,24.863,61.344,10.451,50.991,0 c-4.015,5.451-7.281,11.444-9.753,17.744c-3.579,9.122-5.501,18.893-5.669,28.691c-4.79-7.979-11.256-14.955-18.858-20.322 c-4.514-3.187-9.431-5.806-14.616-7.72c-3.361,16.717,2.731,35.015,15.445,46.379c0.369,0.33,0.745,0.654,1.126,0.972 c-2.359,0.411-4.689,0.983-6.969,1.714C7.582,68.775,3.634,70.61,0,72.945c8.85,9.963,23.134,14.771,36.208,12.186 c3.524-0.697,7.002-1.919,9.887-4.057c0.073-0.054,0.145-0.111,0.218-0.167c-0.987,5.662-2.714,11.136-5.104,16.221l7.509,2.806 c1.698-5.797,2.631-11.748,2.814-17.669c0.107,0.076,0.215,0.152,0.324,0.225c3.142,2.114,6.863,3.232,10.607,3.796 C76.352,88.379,91.161,82.628,100,71.71C96.061,69.427,91.816,67.684,87.422,66.495z" fill="#f8bc24" transform="scale(1.3339016177917837)"></path>
</g><g transform="translate(889.6663727681506 -100) rotate(0)">
  <animateTransform attributeName="transform" type="translate" keyTimes="0;1" values="889.6663727681506 -100;1604 1177.6197344613242" dur="100s" repeatCount="indefinite" begin="-57.341035791191565s"></animateTransform>
  <animateTransform attributeName="transform" type="rotate" keyTimes="0;1" begin="-57.341035791191565s" values="0 50 50;677.1647390470744 50 50" dur="100s" repeatCount="indefinite" additive="sum"></animateTransform>
  <path d="M87.422,66.495c-2.009-0.544-4.049-0.97-6.107-1.283c10.617-11.116,15.747-27.37,13.129-42.549 c-5.236,1.77-10.223,4.252-14.824,7.313c-4.13,2.747-7.948,5.961-11.374,9.55C67.425,24.863,61.344,10.451,50.991,0 c-4.015,5.451-7.281,11.444-9.753,17.744c-3.579,9.122-5.501,18.893-5.669,28.691c-4.79-7.979-11.256-14.955-18.858-20.322 c-4.514-3.187-9.431-5.806-14.616-7.72c-3.361,16.717,2.731,35.015,15.445,46.379c0.369,0.33,0.745,0.654,1.126,0.972 c-2.359,0.411-4.689,0.983-6.969,1.714C7.582,68.775,3.634,70.61,0,72.945c8.85,9.963,23.134,14.771,36.208,12.186 c3.524-0.697,7.002-1.919,9.887-4.057c0.073-0.054,0.145-0.111,0.218-0.167c-0.987,5.662-2.714,11.136-5.104,16.221l7.509,2.806 c1.698-5.797,2.631-11.748,2.814-17.669c0.107,0.076,0.215,0.152,0.324,0.225c3.142,2.114,6.863,3.232,10.607,3.796 C76.352,88.379,91.161,82.628,100,71.71C96.061,69.427,91.816,67.684,87.422,66.495z" fill="#f58800" transform="scale(1.5257428419457797)"></path>
</g><g transform="translate(93.73111380182144 -100) rotate(0)">
  <animateTransform attributeName="transform" type="translate" keyTimes="0;1" values="93.73111380182144 -100;2082.64400598693 2100" dur="100s" repeatCount="indefinite" begin="-40.62270871969373s"></animateTransform>
  <animateTransform attributeName="transform" type="rotate" keyTimes="0;1" begin="-40.62270871969373s" values="0 50 50;1053.9951673740798 50 50" dur="100s" repeatCount="indefinite" additive="sum"></animateTransform>
  <path d="M87.422,66.495c-2.009-0.544-4.049-0.97-6.107-1.283c10.617-11.116,15.747-27.37,13.129-42.549 c-5.236,1.77-10.223,4.252-14.824,7.313c-4.13,2.747-7.948,5.961-11.374,9.55C67.425,24.863,61.344,10.451,50.991,0 c-4.015,5.451-7.281,11.444-9.753,17.744c-3.579,9.122-5.501,18.893-5.669,28.691c-4.79-7.979-11.256-14.955-18.858-20.322 c-4.514-3.187-9.431-5.806-14.616-7.72c-3.361,16.717,2.731,35.015,15.445,46.379c0.369,0.33,0.745,0.654,1.126,0.972 c-2.359,0.411-4.689,0.983-6.969,1.714C7.582,68.775,3.634,70.61,0,72.945c8.85,9.963,23.134,14.771,36.208,12.186 c3.524-0.697,7.002-1.919,9.887-4.057c0.073-0.054,0.145-0.111,0.218-0.167c-0.987,5.662-2.714,11.136-5.104,16.221l7.509,2.806 c1.698-5.797,2.631-11.748,2.814-17.669c0.107,0.076,0.215,0.152,0.324,0.225c3.142,2.114,6.863,3.232,10.607,3.796 C76.352,88.379,91.161,82.628,100,71.71C96.061,69.427,91.816,67.684,87.422,66.495z" fill="#f8bc24" transform="scale(1.2986315461902993)"></path>
</g><g transform="translate(-100 992.1920682684757) rotate(0)">
  <animateTransform attributeName="transform" type="translate" keyTimes="0;1" values="-100 992.1920682684757;829.7266491218109 2100" dur="100s" repeatCount="indefinite" begin="-78.83387238265595s"></animateTransform>
  <animateTransform attributeName="transform" type="rotate" keyTimes="0;1" begin="-78.83387238265595s" values="0 50 50;985.6008746603073 50 50" dur="100s" repeatCount="indefinite" additive="sum"></animateTransform>
  <path d="M87.422,66.495c-2.009-0.544-4.049-0.97-6.107-1.283c10.617-11.116,15.747-27.37,13.129-42.549 c-5.236,1.77-10.223,4.252-14.824,7.313c-4.13,2.747-7.948,5.961-11.374,9.55C67.425,24.863,61.344,10.451,50.991,0 c-4.015,5.451-7.281,11.444-9.753,17.744c-3.579,9.122-5.501,18.893-5.669,28.691c-4.79-7.979-11.256-14.955-18.858-20.322 c-4.514-3.187-9.431-5.806-14.616-7.72c-3.361,16.717,2.731,35.015,15.445,46.379c0.369,0.33,0.745,0.654,1.126,0.972 c-2.359,0.411-4.689,0.983-6.969,1.714C7.582,68.775,3.634,70.61,0,72.945c8.85,9.963,23.134,14.771,36.208,12.186 c3.524-0.697,7.002-1.919,9.887-4.057c0.073-0.054,0.145-0.111,0.218-0.167c-0.987,5.662-2.714,11.136-5.104,16.221l7.509,2.806 c1.698-5.797,2.631-11.748,2.814-17.669c0.107,0.076,0.215,0.152,0.324,0.225c3.142,2.114,6.863,3.232,10.607,3.796 C76.352,88.379,91.161,82.628,100,71.71C96.061,69.427,91.816,67.684,87.422,66.495z" fill="#f58800" transform="scale(1.6819287783130918)"></path>
</g><g transform="translate(-100 98.21531824556473) rotate(0)">
  <animateTransform attributeName="transform" type="translate" keyTimes="0;1" values="-100 98.21531824556473;1604 2380.5333895327376" dur="100s" repeatCount="indefinite" begin="-66.05015279867521s"></animateTransform>
  <animateTransform attributeName="transform" type="rotate" keyTimes="0;1" begin="-66.05015279867521s" values="0 50 50;38.40692700234893 50 50" dur="100s" repeatCount="indefinite" additive="sum"></animateTransform>
  <path d="M87.422,66.495c-2.009-0.544-4.049-0.97-6.107-1.283c10.617-11.116,15.747-27.37,13.129-42.549 c-5.236,1.77-10.223,4.252-14.824,7.313c-4.13,2.747-7.948,5.961-11.374,9.55C67.425,24.863,61.344,10.451,50.991,0 c-4.015,5.451-7.281,11.444-9.753,17.744c-3.579,9.122-5.501,18.893-5.669,28.691c-4.79-7.979-11.256-14.955-18.858-20.322 c-4.514-3.187-9.431-5.806-14.616-7.72c-3.361,16.717,2.731,35.015,15.445,46.379c0.369,0.33,0.745,0.654,1.126,0.972 c-2.359,0.411-4.689,0.983-6.969,1.714C7.582,68.775,3.634,70.61,0,72.945c8.85,9.963,23.134,14.771,36.208,12.186 c3.524-0.697,7.002-1.919,9.887-4.057c0.073-0.054,0.145-0.111,0.218-0.167c-0.987,5.662-2.714,11.136-5.104,16.221l7.509,2.806 c1.698-5.797,2.631-11.748,2.814-17.669c0.107,0.076,0.215,0.152,0.324,0.225c3.142,2.114,6.863,3.232,10.607,3.796 C76.352,88.379,91.161,82.628,100,71.71C96.061,69.427,91.816,67.684,87.422,66.495z" fill="#f8bc24" transform="scale(1.8320948208882015)"></path>
</g><g transform="translate(542.9988084829033 -100) rotate(0)">
  <animateTransform attributeName="transform" type="translate" keyTimes="0;1" values="542.9988084829033 -100;1604 1296.0679335622226" dur="100s" repeatCount="indefinite" begin="-80.74709233483537s"></animateTransform>
  <animateTransform attributeName="transform" type="rotate" keyTimes="0;1" begin="-80.74709233483537s" values="0 50 50;1063.0962816589288 50 50" dur="100s" repeatCount="indefinite" additive="sum"></animateTransform>
  <path d="M87.422,66.495c-2.009-0.544-4.049-0.97-6.107-1.283c10.617-11.116,15.747-27.37,13.129-42.549 c-5.236,1.77-10.223,4.252-14.824,7.313c-4.13,2.747-7.948,5.961-11.374,9.55C67.425,24.863,61.344,10.451,50.991,0 c-4.015,5.451-7.281,11.444-9.753,17.744c-3.579,9.122-5.501,18.893-5.669,28.691c-4.79-7.979-11.256-14.955-18.858-20.322 c-4.514-3.187-9.431-5.806-14.616-7.72c-3.361,16.717,2.731,35.015,15.445,46.379c0.369,0.33,0.745,0.654,1.126,0.972 c-2.359,0.411-4.689,0.983-6.969,1.714C7.582,68.775,3.634,70.61,0,72.945c8.85,9.963,23.134,14.771,36.208,12.186 c3.524-0.697,7.002-1.919,9.887-4.057c0.073-0.054,0.145-0.111,0.218-0.167c-0.987,5.662-2.714,11.136-5.104,16.221l7.509,2.806 c1.698-5.797,2.631-11.748,2.814-17.669c0.107,0.076,0.215,0.152,0.324,0.225c3.142,2.114,6.863,3.232,10.607,3.796 C76.352,88.379,91.161,82.628,100,71.71C96.061,69.427,91.816,67.684,87.422,66.495z" fill="#f58800" transform="scale(1.1690928275301584)"></path>
</g><g transform="translate(-100 322.79307608756216) rotate(0)">
  <animateTransform attributeName="transform" type="translate" keyTimes="0;1" values="-100 322.79307608756216;1482.4309504451448 2100" dur="100s" repeatCount="indefinite" begin="-39.893349077569894s"></animateTransform>
  <animateTransform attributeName="transform" type="rotate" keyTimes="0;1" begin="-39.893349077569894s" values="0 50 50;195.71619193255705 50 50" dur="100s" repeatCount="indefinite" additive="sum"></animateTransform>
  <path d="M87.422,66.495c-2.009-0.544-4.049-0.97-6.107-1.283c10.617-11.116,15.747-27.37,13.129-42.549 c-5.236,1.77-10.223,4.252-14.824,7.313c-4.13,2.747-7.948,5.961-11.374,9.55C67.425,24.863,61.344,10.451,50.991,0 c-4.015,5.451-7.281,11.444-9.753,17.744c-3.579,9.122-5.501,18.893-5.669,28.691c-4.79-7.979-11.256-14.955-18.858-20.322 c-4.514-3.187-9.431-5.806-14.616-7.72c-3.361,16.717,2.731,35.015,15.445,46.379c0.369,0.33,0.745,0.654,1.126,0.972 c-2.359,0.411-4.689,0.983-6.969,1.714C7.582,68.775,3.634,70.61,0,72.945c8.85,9.963,23.134,14.771,36.208,12.186 c3.524-0.697,7.002-1.919,9.887-4.057c0.073-0.054,0.145-0.111,0.218-0.167c-0.987,5.662-2.714,11.136-5.104,16.221l7.509,2.806 c1.698-5.797,2.631-11.748,2.814-17.669c0.107,0.076,0.215,0.152,0.324,0.225c3.142,2.114,6.863,3.232,10.607,3.796 C76.352,88.379,91.161,82.628,100,71.71C96.061,69.427,91.816,67.684,87.422,66.495z" fill="#f8bc24" transform="scale(1.7749368360638484)"></path>
</g><g transform="translate(-100 36.14530664262827) rotate(0)">
  <animateTransform attributeName="transform" type="translate" keyTimes="0;1" values="-100 36.14530664262827;1604 2478.131370205509" dur="100s" repeatCount="indefinite" begin="-86.95272229180708s"></animateTransform>
  <animateTransform attributeName="transform" type="rotate" keyTimes="0;1" begin="-86.95272229180708s" values="0 50 50;660.5573197101496 50 50" dur="100s" repeatCount="indefinite" additive="sum"></animateTransform>
  <path d="M87.422,66.495c-2.009-0.544-4.049-0.97-6.107-1.283c10.617-11.116,15.747-27.37,13.129-42.549 c-5.236,1.77-10.223,4.252-14.824,7.313c-4.13,2.747-7.948,5.961-11.374,9.55C67.425,24.863,61.344,10.451,50.991,0 c-4.015,5.451-7.281,11.444-9.753,17.744c-3.579,9.122-5.501,18.893-5.669,28.691c-4.79-7.979-11.256-14.955-18.858-20.322 c-4.514-3.187-9.431-5.806-14.616-7.72c-3.361,16.717,2.731,35.015,15.445,46.379c0.369,0.33,0.745,0.654,1.126,0.972 c-2.359,0.411-4.689,0.983-6.969,1.714C7.582,68.775,3.634,70.61,0,72.945c8.85,9.963,23.134,14.771,36.208,12.186 c3.524-0.697,7.002-1.919,9.887-4.057c0.073-0.054,0.145-0.111,0.218-0.167c-0.987,5.662-2.714,11.136-5.104,16.221l7.509,2.806 c1.698-5.797,2.631-11.748,2.814-17.669c0.107,0.076,0.215,0.152,0.324,0.225c3.142,2.114,6.863,3.232,10.607,3.796 C76.352,88.379,91.161,82.628,100,71.71C96.061,69.427,91.816,67.684,87.422,66.495z" fill="#f58800" transform="scale(1.2316357109295193)"></path>
</g><g transform="translate(-100 281.7976005545815) rotate(0)">
  <animateTransform attributeName="transform" type="translate" keyTimes="0;1" values="-100 281.7976005545815;1604 1746.0634239413303" dur="100s" repeatCount="indefinite" begin="-17.80491486566722s"></animateTransform>
  <animateTransform attributeName="transform" type="rotate" keyTimes="0;1" begin="-17.80491486566722s" values="0 50 50;505.1310147916601 50 50" dur="100s" repeatCount="indefinite" additive="sum"></animateTransform>
  <path d="M87.422,66.495c-2.009-0.544-4.049-0.97-6.107-1.283c10.617-11.116,15.747-27.37,13.129-42.549 c-5.236,1.77-10.223,4.252-14.824,7.313c-4.13,2.747-7.948,5.961-11.374,9.55C67.425,24.863,61.344,10.451,50.991,0 c-4.015,5.451-7.281,11.444-9.753,17.744c-3.579,9.122-5.501,18.893-5.669,28.691c-4.79-7.979-11.256-14.955-18.858-20.322 c-4.514-3.187-9.431-5.806-14.616-7.72c-3.361,16.717,2.731,35.015,15.445,46.379c0.369,0.33,0.745,0.654,1.126,0.972 c-2.359,0.411-4.689,0.983-6.969,1.714C7.582,68.775,3.634,70.61,0,72.945c8.85,9.963,23.134,14.771,36.208,12.186 c3.524-0.697,7.002-1.919,9.887-4.057c0.073-0.054,0.145-0.111,0.218-0.167c-0.987,5.662-2.714,11.136-5.104,16.221l7.509,2.806 c1.698-5.797,2.631-11.748,2.814-17.669c0.107,0.076,0.215,0.152,0.324,0.225c3.142,2.114,6.863,3.232,10.607,3.796 C76.352,88.379,91.161,82.628,100,71.71C96.061,69.427,91.816,67.684,87.422,66.495z" fill="#266867" transform="scale(1.919224486477018)"></path>
</g><g transform="translate(-100 344.09380302927883) rotate(0)">
  <animateTransform attributeName="transform" type="translate" keyTimes="0;1" values="-100 344.09380302927883;1604 2633.859304422722" dur="100s" repeatCount="indefinite" begin="-47.74853896759874s"></animateTransform>
  <animateTransform attributeName="transform" type="rotate" keyTimes="0;1" begin="-47.74853896759874s" values="0 50 50;526.545925592516 50 50" dur="100s" repeatCount="indefinite" additive="sum"></animateTransform>
  <path d="M87.422,66.495c-2.009-0.544-4.049-0.97-6.107-1.283c10.617-11.116,15.747-27.37,13.129-42.549 c-5.236,1.77-10.223,4.252-14.824,7.313c-4.13,2.747-7.948,5.961-11.374,9.55C67.425,24.863,61.344,10.451,50.991,0 c-4.015,5.451-7.281,11.444-9.753,17.744c-3.579,9.122-5.501,18.893-5.669,28.691c-4.79-7.979-11.256-14.955-18.858-20.322 c-4.514-3.187-9.431-5.806-14.616-7.72c-3.361,16.717,2.731,35.015,15.445,46.379c0.369,0.33,0.745,0.654,1.126,0.972 c-2.359,0.411-4.689,0.983-6.969,1.714C7.582,68.775,3.634,70.61,0,72.945c8.85,9.963,23.134,14.771,36.208,12.186 c3.524-0.697,7.002-1.919,9.887-4.057c0.073-0.054,0.145-0.111,0.218-0.167c-0.987,5.662-2.714,11.136-5.104,16.221l7.509,2.806 c1.698-5.797,2.631-11.748,2.814-17.669c0.107,0.076,0.215,0.152,0.324,0.225c3.142,2.114,6.863,3.232,10.607,3.796 C76.352,88.379,91.161,82.628,100,71.71C96.061,69.427,91.816,67.684,87.422,66.495z" fill="#f58800" transform="scale(1.8213731319080082)"></path>
</g><g transform="translate(-100 767.3296935079918) rotate(0)">
  <animateTransform attributeName="transform" type="translate" keyTimes="0;1" values="-100 767.3296935079918;1302.3941315768104 2100" dur="100s" repeatCount="indefinite" begin="-78.0945384427832s"></animateTransform>
  <animateTransform attributeName="transform" type="rotate" keyTimes="0;1" begin="-78.0945384427832s" values="0 50 50;693.2474459471579 50 50" dur="100s" repeatCount="indefinite" additive="sum"></animateTransform>
  <path d="M87.422,66.495c-2.009-0.544-4.049-0.97-6.107-1.283c10.617-11.116,15.747-27.37,13.129-42.549 c-5.236,1.77-10.223,4.252-14.824,7.313c-4.13,2.747-7.948,5.961-11.374,9.55C67.425,24.863,61.344,10.451,50.991,0 c-4.015,5.451-7.281,11.444-9.753,17.744c-3.579,9.122-5.501,18.893-5.669,28.691c-4.79-7.979-11.256-14.955-18.858-20.322 c-4.514-3.187-9.431-5.806-14.616-7.72c-3.361,16.717,2.731,35.015,15.445,46.379c0.369,0.33,0.745,0.654,1.126,0.972 c-2.359,0.411-4.689,0.983-6.969,1.714C7.582,68.775,3.634,70.61,0,72.945c8.85,9.963,23.134,14.771,36.208,12.186 c3.524-0.697,7.002-1.919,9.887-4.057c0.073-0.054,0.145-0.111,0.218-0.167c-0.987,5.662-2.714,11.136-5.104,16.221l7.509,2.806 c1.698-5.797,2.631-11.748,2.814-17.669c0.107,0.076,0.215,0.152,0.324,0.225c3.142,2.114,6.863,3.232,10.607,3.796 C76.352,88.379,91.161,82.628,100,71.71C96.061,69.427,91.816,67.684,87.422,66.495z" fill="#266867" transform="scale(1.8783193691170108)"></path>
</g><g transform="translate(996.3178224144675 -100) rotate(0)">
  <animateTransform attributeName="transform" type="translate" keyTimes="0;1" values="996.3178224144675 -100;2696.2598192030196 2100" dur="100s" repeatCount="indefinite" begin="-27.15057285643121s"></animateTransform>
  <animateTransform attributeName="transform" type="rotate" keyTimes="0;1" begin="-27.15057285643121s" values="0 50 50;701.5678727463721 50 50" dur="100s" repeatCount="indefinite" additive="sum"></animateTransform>
  <path d="M87.422,66.495c-2.009-0.544-4.049-0.97-6.107-1.283c10.617-11.116,15.747-27.37,13.129-42.549 c-5.236,1.77-10.223,4.252-14.824,7.313c-4.13,2.747-7.948,5.961-11.374,9.55C67.425,24.863,61.344,10.451,50.991,0 c-4.015,5.451-7.281,11.444-9.753,17.744c-3.579,9.122-5.501,18.893-5.669,28.691c-4.79-7.979-11.256-14.955-18.858-20.322 c-4.514-3.187-9.431-5.806-14.616-7.72c-3.361,16.717,2.731,35.015,15.445,46.379c0.369,0.33,0.745,0.654,1.126,0.972 c-2.359,0.411-4.689,0.983-6.969,1.714C7.582,68.775,3.634,70.61,0,72.945c8.85,9.963,23.134,14.771,36.208,12.186 c3.524-0.697,7.002-1.919,9.887-4.057c0.073-0.054,0.145-0.111,0.218-0.167c-0.987,5.662-2.714,11.136-5.104,16.221l7.509,2.806 c1.698-5.797,2.631-11.748,2.814-17.669c0.107,0.076,0.215,0.152,0.324,0.225c3.142,2.114,6.863,3.232,10.607,3.796 C76.352,88.379,91.161,82.628,100,71.71C96.061,69.427,91.816,67.684,87.422,66.495z" fill="#266867" transform="scale(1.8170535338816463)"></path>
</g><g transform="translate(1002.7425313684556 -100) rotate(0)">
  <animateTransform attributeName="transform" type="translate" keyTimes="0;1" values="1002.7425313684556 -100;1604 1949.2968767962093" dur="100s" repeatCount="indefinite" begin="-71.57563511010842s"></animateTransform>
  <animateTransform attributeName="transform" type="rotate" keyTimes="0;1" begin="-71.57563511010842s" values="0 50 50;57.27708347343058 50 50" dur="100s" repeatCount="indefinite" additive="sum"></animateTransform>
  <path d="M87.422,66.495c-2.009-0.544-4.049-0.97-6.107-1.283c10.617-11.116,15.747-27.37,13.129-42.549 c-5.236,1.77-10.223,4.252-14.824,7.313c-4.13,2.747-7.948,5.961-11.374,9.55C67.425,24.863,61.344,10.451,50.991,0 c-4.015,5.451-7.281,11.444-9.753,17.744c-3.579,9.122-5.501,18.893-5.669,28.691c-4.79-7.979-11.256-14.955-18.858-20.322 c-4.514-3.187-9.431-5.806-14.616-7.72c-3.361,16.717,2.731,35.015,15.445,46.379c0.369,0.33,0.745,0.654,1.126,0.972 c-2.359,0.411-4.689,0.983-6.969,1.714C7.582,68.775,3.634,70.61,0,72.945c8.85,9.963,23.134,14.771,36.208,12.186 c3.524-0.697,7.002-1.919,9.887-4.057c0.073-0.054,0.145-0.111,0.218-0.167c-0.987,5.662-2.714,11.136-5.104,16.221l7.509,2.806 c1.698-5.797,2.631-11.748,2.814-17.669c0.107,0.076,0.215,0.152,0.324,0.225c3.142,2.114,6.863,3.232,10.607,3.796 C76.352,88.379,91.161,82.628,100,71.71C96.061,69.427,91.816,67.684,87.422,66.495z" fill="#266867" transform="scale(1.8438183488012334)"></path>
</g><g transform="translate(-100 15.724220040274961) rotate(0)">
  <animateTransform attributeName="transform" type="translate" keyTimes="0;1" values="-100 15.724220040274961;2011.9275759287066 2100" dur="100s" repeatCount="indefinite" begin="-21.398449185177636s"></animateTransform>
  <animateTransform attributeName="transform" type="rotate" keyTimes="0;1" begin="-21.398449185177636s" values="0 50 50;477.16264447650883 50 50" dur="100s" repeatCount="indefinite" additive="sum"></animateTransform>
  <path d="M87.422,66.495c-2.009-0.544-4.049-0.97-6.107-1.283c10.617-11.116,15.747-27.37,13.129-42.549 c-5.236,1.77-10.223,4.252-14.824,7.313c-4.13,2.747-7.948,5.961-11.374,9.55C67.425,24.863,61.344,10.451,50.991,0 c-4.015,5.451-7.281,11.444-9.753,17.744c-3.579,9.122-5.501,18.893-5.669,28.691c-4.79-7.979-11.256-14.955-18.858-20.322 c-4.514-3.187-9.431-5.806-14.616-7.72c-3.361,16.717,2.731,35.015,15.445,46.379c0.369,0.33,0.745,0.654,1.126,0.972 c-2.359,0.411-4.689,0.983-6.969,1.714C7.582,68.775,3.634,70.61,0,72.945c8.85,9.963,23.134,14.771,36.208,12.186 c3.524-0.697,7.002-1.919,9.887-4.057c0.073-0.054,0.145-0.111,0.218-0.167c-0.987,5.662-2.714,11.136-5.104,16.221l7.509,2.806 c1.698-5.797,2.631-11.748,2.814-17.669c0.107,0.076,0.215,0.152,0.324,0.225c3.142,2.114,6.863,3.232,10.607,3.796 C76.352,88.379,91.161,82.628,100,71.71C96.061,69.427,91.816,67.684,87.422,66.495z" fill="#f8bc24" transform="scale(1.2137721341795082)"></path>
</g><g transform="translate(-100 435.5120199306852) rotate(0)">
  <animateTransform attributeName="transform" type="translate" keyTimes="0;1" values="-100 435.5120199306852;1604 1503.7903459969862" dur="100s" repeatCount="indefinite" begin="-47.91076353965651s"></animateTransform>
  <animateTransform attributeName="transform" type="rotate" keyTimes="0;1" begin="-47.91076353965651s" values="0 50 50;968.8129970442001 50 50" dur="100s" repeatCount="indefinite" additive="sum"></animateTransform>
  <path d="M87.422,66.495c-2.009-0.544-4.049-0.97-6.107-1.283c10.617-11.116,15.747-27.37,13.129-42.549 c-5.236,1.77-10.223,4.252-14.824,7.313c-4.13,2.747-7.948,5.961-11.374,9.55C67.425,24.863,61.344,10.451,50.991,0 c-4.015,5.451-7.281,11.444-9.753,17.744c-3.579,9.122-5.501,18.893-5.669,28.691c-4.79-7.979-11.256-14.955-18.858-20.322 c-4.514-3.187-9.431-5.806-14.616-7.72c-3.361,16.717,2.731,35.015,15.445,46.379c0.369,0.33,0.745,0.654,1.126,0.972 c-2.359,0.411-4.689,0.983-6.969,1.714C7.582,68.775,3.634,70.61,0,72.945c8.85,9.963,23.134,14.771,36.208,12.186 c3.524-0.697,7.002-1.919,9.887-4.057c0.073-0.054,0.145-0.111,0.218-0.167c-0.987,5.662-2.714,11.136-5.104,16.221l7.509,2.806 c1.698-5.797,2.631-11.748,2.814-17.669c0.107,0.076,0.215,0.152,0.324,0.225c3.142,2.114,6.863,3.232,10.607,3.796 C76.352,88.379,91.161,82.628,100,71.71C96.061,69.427,91.816,67.684,87.422,66.495z" fill="#266867" transform="scale(1.055029428113462)"></path>
</g><g transform="translate(-100 183.61357019762025) rotate(0)">
  <animateTransform attributeName="transform" type="translate" keyTimes="0;1" values="-100 183.61357019762025;1829.0816199666706 2100" dur="100s" repeatCount="indefinite" begin="-29.273410563545642s"></animateTransform>
  <animateTransform attributeName="transform" type="rotate" keyTimes="0;1" begin="-29.273410563545642s" values="0 50 50;292.85875135325796 50 50" dur="100s" repeatCount="indefinite" additive="sum"></animateTransform>
  <path d="M87.422,66.495c-2.009-0.544-4.049-0.97-6.107-1.283c10.617-11.116,15.747-27.37,13.129-42.549 c-5.236,1.77-10.223,4.252-14.824,7.313c-4.13,2.747-7.948,5.961-11.374,9.55C67.425,24.863,61.344,10.451,50.991,0 c-4.015,5.451-7.281,11.444-9.753,17.744c-3.579,9.122-5.501,18.893-5.669,28.691c-4.79-7.979-11.256-14.955-18.858-20.322 c-4.514-3.187-9.431-5.806-14.616-7.72c-3.361,16.717,2.731,35.015,15.445,46.379c0.369,0.33,0.745,0.654,1.126,0.972 c-2.359,0.411-4.689,0.983-6.969,1.714C7.582,68.775,3.634,70.61,0,72.945c8.85,9.963,23.134,14.771,36.208,12.186 c3.524-0.697,7.002-1.919,9.887-4.057c0.073-0.054,0.145-0.111,0.218-0.167c-0.987,5.662-2.714,11.136-5.104,16.221l7.509,2.806 c1.698-5.797,2.631-11.748,2.814-17.669c0.107,0.076,0.215,0.152,0.324,0.225c3.142,2.114,6.863,3.232,10.607,3.796 C76.352,88.379,91.161,82.628,100,71.71C96.061,69.427,91.816,67.684,87.422,66.495z" fill="#1a4645" transform="scale(1.6806805756583503)"></path>
</g><g transform="translate(-100 35.081867918655306) rotate(0)">
  <animateTransform attributeName="transform" type="translate" keyTimes="0;1" values="-100 35.081867918655306;1604 2991.89273540852" dur="100s" repeatCount="indefinite" begin="-77.47001122183306s"></animateTransform>
  <animateTransform attributeName="transform" type="rotate" keyTimes="0;1" begin="-77.47001122183306s" values="0 50 50;943.0463690967165 50 50" dur="100s" repeatCount="indefinite" additive="sum"></animateTransform>
  <path d="M87.422,66.495c-2.009-0.544-4.049-0.97-6.107-1.283c10.617-11.116,15.747-27.37,13.129-42.549 c-5.236,1.77-10.223,4.252-14.824,7.313c-4.13,2.747-7.948,5.961-11.374,9.55C67.425,24.863,61.344,10.451,50.991,0 c-4.015,5.451-7.281,11.444-9.753,17.744c-3.579,9.122-5.501,18.893-5.669,28.691c-4.79-7.979-11.256-14.955-18.858-20.322 c-4.514-3.187-9.431-5.806-14.616-7.72c-3.361,16.717,2.731,35.015,15.445,46.379c0.369,0.33,0.745,0.654,1.126,0.972 c-2.359,0.411-4.689,0.983-6.969,1.714C7.582,68.775,3.634,70.61,0,72.945c8.85,9.963,23.134,14.771,36.208,12.186 c3.524-0.697,7.002-1.919,9.887-4.057c0.073-0.054,0.145-0.111,0.218-0.167c-0.987,5.662-2.714,11.136-5.104,16.221l7.509,2.806 c1.698-5.797,2.631-11.748,2.814-17.669c0.107,0.076,0.215,0.152,0.324,0.225c3.142,2.114,6.863,3.232,10.607,3.796 C76.352,88.379,91.161,82.628,100,71.71C96.061,69.427,91.816,67.684,87.422,66.495z" fill="#1a4645" transform="scale(1.6068671063372109)"></path>
</g><g transform="translate(365.3137039150696 -100) rotate(0)">
  <animateTransform attributeName="transform" type="translate" keyTimes="0;1" values="365.3137039150696 -100;2089.4385072518508 2100" dur="100s" repeatCount="indefinite" begin="-44.515187855162466s"></animateTransform>
  <animateTransform attributeName="transform" type="rotate" keyTimes="0;1" begin="-44.515187855162466s" values="0 50 50;689.2573721600005 50 50" dur="100s" repeatCount="indefinite" additive="sum"></animateTransform>
  <path d="M87.422,66.495c-2.009-0.544-4.049-0.97-6.107-1.283c10.617-11.116,15.747-27.37,13.129-42.549 c-5.236,1.77-10.223,4.252-14.824,7.313c-4.13,2.747-7.948,5.961-11.374,9.55C67.425,24.863,61.344,10.451,50.991,0 c-4.015,5.451-7.281,11.444-9.753,17.744c-3.579,9.122-5.501,18.893-5.669,28.691c-4.79-7.979-11.256-14.955-18.858-20.322 c-4.514-3.187-9.431-5.806-14.616-7.72c-3.361,16.717,2.731,35.015,15.445,46.379c0.369,0.33,0.745,0.654,1.126,0.972 c-2.359,0.411-4.689,0.983-6.969,1.714C7.582,68.775,3.634,70.61,0,72.945c8.85,9.963,23.134,14.771,36.208,12.186 c3.524-0.697,7.002-1.919,9.887-4.057c0.073-0.054,0.145-0.111,0.218-0.167c-0.987,5.662-2.714,11.136-5.104,16.221l7.509,2.806 c1.698-5.797,2.631-11.748,2.814-17.669c0.107,0.076,0.215,0.152,0.324,0.225c3.142,2.114,6.863,3.232,10.607,3.796 C76.352,88.379,91.161,82.628,100,71.71C96.061,69.427,91.816,67.684,87.422,66.495z" fill="#f58800" transform="scale(1.2680566443204848)"></path>
</g><g transform="translate(-100 727.3169961053771) rotate(0)">
  <animateTransform attributeName="transform" type="translate" keyTimes="0;1" values="-100 727.3169961053771;1144.56774993544 2100" dur="100s" repeatCount="indefinite" begin="-58.9787722963234s"></animateTransform>
  <animateTransform attributeName="transform" type="rotate" keyTimes="0;1" begin="-58.9787722963234s" values="0 50 50;534.489512862949 50 50" dur="100s" repeatCount="indefinite" additive="sum"></animateTransform>
  <path d="M87.422,66.495c-2.009-0.544-4.049-0.97-6.107-1.283c10.617-11.116,15.747-27.37,13.129-42.549 c-5.236,1.77-10.223,4.252-14.824,7.313c-4.13,2.747-7.948,5.961-11.374,9.55C67.425,24.863,61.344,10.451,50.991,0 c-4.015,5.451-7.281,11.444-9.753,17.744c-3.579,9.122-5.501,18.893-5.669,28.691c-4.79-7.979-11.256-14.955-18.858-20.322 c-4.514-3.187-9.431-5.806-14.616-7.72c-3.361,16.717,2.731,35.015,15.445,46.379c0.369,0.33,0.745,0.654,1.126,0.972 c-2.359,0.411-4.689,0.983-6.969,1.714C7.582,68.775,3.634,70.61,0,72.945c8.85,9.963,23.134,14.771,36.208,12.186 c3.524-0.697,7.002-1.919,9.887-4.057c0.073-0.054,0.145-0.111,0.218-0.167c-0.987,5.662-2.714,11.136-5.104,16.221l7.509,2.806 c1.698-5.797,2.631-11.748,2.814-17.669c0.107,0.076,0.215,0.152,0.324,0.225c3.142,2.114,6.863,3.232,10.607,3.796 C76.352,88.379,91.161,82.628,100,71.71C96.061,69.427,91.816,67.684,87.422,66.495z" fill="#1a4645" transform="scale(1.999645476508612)"></path>
</g><g transform="translate(-100 205.47966260060812) rotate(0)">
  <animateTransform attributeName="transform" type="translate" keyTimes="0;1" values="-100 205.47966260060812;1604 2375.2941527939415" dur="100s" repeatCount="indefinite" begin="-47.24321724203398s"></animateTransform>
  <animateTransform attributeName="transform" type="rotate" keyTimes="0;1" begin="-47.24321724203398s" values="0 50 50;968.3687729954906 50 50" dur="100s" repeatCount="indefinite" additive="sum"></animateTransform>
  <path d="M87.422,66.495c-2.009-0.544-4.049-0.97-6.107-1.283c10.617-11.116,15.747-27.37,13.129-42.549 c-5.236,1.77-10.223,4.252-14.824,7.313c-4.13,2.747-7.948,5.961-11.374,9.55C67.425,24.863,61.344,10.451,50.991,0 c-4.015,5.451-7.281,11.444-9.753,17.744c-3.579,9.122-5.501,18.893-5.669,28.691c-4.79-7.979-11.256-14.955-18.858-20.322 c-4.514-3.187-9.431-5.806-14.616-7.72c-3.361,16.717,2.731,35.015,15.445,46.379c0.369,0.33,0.745,0.654,1.126,0.972 c-2.359,0.411-4.689,0.983-6.969,1.714C7.582,68.775,3.634,70.61,0,72.945c8.85,9.963,23.134,14.771,36.208,12.186 c3.524-0.697,7.002-1.919,9.887-4.057c0.073-0.054,0.145-0.111,0.218-0.167c-0.987,5.662-2.714,11.136-5.104,16.221l7.509,2.806 c1.698-5.797,2.631-11.748,2.814-17.669c0.107,0.076,0.215,0.152,0.324,0.225c3.142,2.114,6.863,3.232,10.607,3.796 C76.352,88.379,91.161,82.628,100,71.71C96.061,69.427,91.816,67.684,87.422,66.495z" fill="#f58800" transform="scale(1.877134821912233)"></path>
</g><g transform="translate(-100 236.26886174405604) rotate(0)">
  <animateTransform attributeName="transform" type="translate" keyTimes="0;1" values="-100 236.26886174405604;1177.338631199787 2100" dur="100s" repeatCount="indefinite" begin="-50.183277612949986s"></animateTransform>
  <animateTransform attributeName="transform" type="rotate" keyTimes="0;1" begin="-50.183277612949986s" values="0 50 50;509.06975227915575 50 50" dur="100s" repeatCount="indefinite" additive="sum"></animateTransform>
  <path d="M87.422,66.495c-2.009-0.544-4.049-0.97-6.107-1.283c10.617-11.116,15.747-27.37,13.129-42.549 c-5.236,1.77-10.223,4.252-14.824,7.313c-4.13,2.747-7.948,5.961-11.374,9.55C67.425,24.863,61.344,10.451,50.991,0 c-4.015,5.451-7.281,11.444-9.753,17.744c-3.579,9.122-5.501,18.893-5.669,28.691c-4.79-7.979-11.256-14.955-18.858-20.322 c-4.514-3.187-9.431-5.806-14.616-7.72c-3.361,16.717,2.731,35.015,15.445,46.379c0.369,0.33,0.745,0.654,1.126,0.972 c-2.359,0.411-4.689,0.983-6.969,1.714C7.582,68.775,3.634,70.61,0,72.945c8.85,9.963,23.134,14.771,36.208,12.186 c3.524-0.697,7.002-1.919,9.887-4.057c0.073-0.054,0.145-0.111,0.218-0.167c-0.987,5.662-2.714,11.136-5.104,16.221l7.509,2.806 c1.698-5.797,2.631-11.748,2.814-17.669c0.107,0.076,0.215,0.152,0.324,0.225c3.142,2.114,6.863,3.232,10.607,3.796 C76.352,88.379,91.161,82.628,100,71.71C96.061,69.427,91.816,67.684,87.422,66.495z" fill="#1a4645" transform="scale(1.5379349197182857)"></path>
</g><g transform="translate(-100 295.1030895389315) rotate(0)">
  <animateTransform attributeName="transform" type="translate" keyTimes="0;1" values="-100 295.1030895389315;1604 2883.7842187490423" dur="100s" repeatCount="indefinite" begin="-71.64478847951455s"></animateTransform>
  <animateTransform attributeName="transform" type="rotate" keyTimes="0;1" begin="-71.64478847951455s" values="0 50 50;1043.2301376088808 50 50" dur="100s" repeatCount="indefinite" additive="sum"></animateTransform>
  <path d="M87.422,66.495c-2.009-0.544-4.049-0.97-6.107-1.283c10.617-11.116,15.747-27.37,13.129-42.549 c-5.236,1.77-10.223,4.252-14.824,7.313c-4.13,2.747-7.948,5.961-11.374,9.55C67.425,24.863,61.344,10.451,50.991,0 c-4.015,5.451-7.281,11.444-9.753,17.744c-3.579,9.122-5.501,18.893-5.669,28.691c-4.79-7.979-11.256-14.955-18.858-20.322 c-4.514-3.187-9.431-5.806-14.616-7.72c-3.361,16.717,2.731,35.015,15.445,46.379c0.369,0.33,0.745,0.654,1.126,0.972 c-2.359,0.411-4.689,0.983-6.969,1.714C7.582,68.775,3.634,70.61,0,72.945c8.85,9.963,23.134,14.771,36.208,12.186 c3.524-0.697,7.002-1.919,9.887-4.057c0.073-0.054,0.145-0.111,0.218-0.167c-0.987,5.662-2.714,11.136-5.104,16.221l7.509,2.806 c1.698-5.797,2.631-11.748,2.814-17.669c0.107,0.076,0.215,0.152,0.324,0.225c3.142,2.114,6.863,3.232,10.607,3.796 C76.352,88.379,91.161,82.628,100,71.71C96.061,69.427,91.816,67.684,87.422,66.495z" fill="#1a4645" transform="scale(1.1489574752604894)"></path>
</g></g>
</svg>